<svg width="205" height="39" viewBox="0 0 205 39" fill="none" xmlns="http://www.w3.org/2000/svg">
<g filter="url(#filter0_dd_8_29)">
<mask id="path-1-outside-1_8_29" maskUnits="userSpaceOnUse" x="4" y="0" width="197" height="31" fill="black">
<rect fill="white" x="4" width="197" height="31"/>
<path d="M16.8815 29.5264C14.7258 29.5264 12.6453 29.2632 10.6399 28.7368C8.6597 28.1853 7.04291 27.4835 5.78959 26.6312L8.23357 21.1417C9.41169 21.8937 10.7653 22.5203 12.2943 23.0217C13.8484 23.4979 15.39 23.736 16.9191 23.736C17.9468 23.736 18.774 23.6483 19.4007 23.4729C20.0273 23.2723 20.4785 23.0217 20.7543 22.7209C21.055 22.395 21.2054 22.019 21.2054 21.5929C21.2054 20.9913 20.9297 20.515 20.3783 20.1641C19.8268 19.8132 19.1124 19.5249 18.2351 19.2993C17.3577 19.0737 16.3802 18.8481 15.3023 18.6225C14.2495 18.3969 13.1842 18.1086 12.1063 17.7577C11.0535 17.4068 10.0885 16.9556 9.21116 16.4041C8.33384 15.8276 7.61944 15.0881 7.06798 14.1857C6.51652 13.2583 6.24079 12.0927 6.24079 10.689C6.24079 9.10979 6.66692 7.681 7.51918 6.40261C8.3965 5.12423 9.69996 4.0965 11.4295 3.31944C13.1591 2.54238 15.3148 2.15385 17.8967 2.15385C19.6263 2.15385 21.3182 2.35438 22.9726 2.75545C24.6521 3.13144 26.1435 3.69544 27.447 4.44743L25.1534 9.97458C23.9001 9.29778 22.6593 8.79646 21.431 8.47059C20.2028 8.11966 19.0121 7.9442 17.8591 7.9442C16.8314 7.9442 16.0042 8.057 15.3775 8.2826C14.7508 8.48313 14.2996 8.75886 14.0239 9.10979C13.7482 9.46072 13.6103 9.86178 13.6103 10.313C13.6103 10.8895 13.8735 11.3532 14.3999 11.7042C14.9514 12.03 15.6658 12.3058 16.5431 12.5314C17.4455 12.7319 18.4231 12.945 19.4759 13.1705C20.5537 13.3961 21.619 13.6844 22.6718 14.0353C23.7497 14.3612 24.7273 14.8124 25.6046 15.3889C26.4819 15.9404 27.1838 16.6798 27.7102 17.6073C28.2616 18.5097 28.5374 19.6502 28.5374 21.0289C28.5374 22.5579 28.0987 23.9742 27.2214 25.2776C26.3691 26.556 25.0782 27.5837 23.3486 28.3608C21.6441 29.1379 19.4884 29.5264 16.8815 29.5264ZM39.609 29.3384C37.0021 29.3384 34.9717 28.6992 33.5179 27.4208C32.064 26.1174 31.3371 24.1622 31.3371 21.5553V4.07143H38.481V21.4801C38.481 22.207 38.6815 22.7835 39.0826 23.2097C39.4837 23.6107 39.9975 23.8112 40.6242 23.8112C41.4765 23.8112 42.2034 23.5982 42.805 23.1721L44.5722 28.1728C43.9706 28.5739 43.2311 28.8621 42.3538 29.0376C41.4765 29.2381 40.5615 29.3384 39.609 29.3384ZM28.3667 14.7121V9.37299H43.1434V14.7121H28.3667ZM58.6444 29V25.2024L58.1556 24.2624V17.2689C58.1556 16.1409 57.8047 15.2761 57.1028 14.6745C56.426 14.0479 55.3356 13.7345 53.8317 13.7345C52.8541 13.7345 51.8639 13.8975 50.8613 14.2233C49.8586 14.5241 49.0064 14.9503 48.3045 15.5017L45.8981 10.6514C47.0512 9.89938 48.4298 9.32285 50.0341 8.92179C51.6634 8.49566 53.2802 8.2826 54.8844 8.2826C58.1932 8.2826 60.75 9.04712 62.5548 10.5762C64.3846 12.0802 65.2995 14.4489 65.2995 17.6825V29H58.6444ZM52.6285 29.3384C50.9991 29.3384 49.6205 29.0627 48.4925 28.5112C47.3645 27.9597 46.4997 27.2078 45.8981 26.2552C45.3216 25.3027 45.0333 24.2374 45.0333 23.0593C45.0333 21.8059 45.3467 20.7281 45.9733 19.8257C46.6251 18.8982 47.6152 18.1964 48.9437 17.7201C50.2722 17.2188 51.9893 16.9681 54.0949 16.9681H58.9076V20.6905H55.0724C53.9194 20.6905 53.1047 20.8785 52.6285 21.2545C52.1773 21.6305 51.9517 22.1318 51.9517 22.7585C51.9517 23.3851 52.1898 23.8864 52.6661 24.2624C53.1423 24.6384 53.7941 24.8264 54.6212 24.8264C55.3983 24.8264 56.1002 24.6384 56.7268 24.2624C57.3786 23.8614 57.8548 23.2598 58.1556 22.4577L59.1332 25.0896C58.7572 26.4934 58.0177 27.5587 56.9148 28.2856C55.837 28.9875 54.4082 29.3384 52.6285 29.3384ZM68.6809 29V8.62099H75.4864V14.5617L74.4712 12.8698C75.0728 11.3407 76.0504 10.2002 77.404 9.44818C78.7576 8.67113 80.3994 8.2826 82.3295 8.2826V14.7121C82.0037 14.662 81.7154 14.6369 81.4648 14.6369C81.2392 14.6119 80.9885 14.5993 80.7128 14.5993C79.2589 14.5993 78.0808 15.0004 77.1784 15.8025C76.276 16.5796 75.8248 17.858 75.8248 19.6377V29H68.6809ZM84.4513 29V2.68025H97.912C101.371 2.68025 103.953 3.31944 105.657 4.59783C107.362 5.85115 108.214 7.50554 108.214 9.56098C108.214 10.9146 107.851 12.1052 107.124 13.1329C106.422 14.1356 105.419 14.9377 104.116 15.5393C102.838 16.1159 101.308 16.4041 99.5287 16.4041L100.281 14.5993C102.136 14.5993 103.752 14.8876 105.131 15.4641C106.51 16.0156 107.575 16.8302 108.327 17.9081C109.104 18.9609 109.493 20.2518 109.493 21.7809C109.493 24.0619 108.565 25.8416 106.71 27.12C104.88 28.3733 102.198 29 98.6639 29H84.4513ZM91.8208 23.6233H98.0624C99.3407 23.6233 100.306 23.4102 100.958 22.9841C101.634 22.5329 101.973 21.8561 101.973 20.9537C101.973 20.0513 101.634 19.387 100.958 18.9609C100.306 18.5097 99.3407 18.2841 98.0624 18.2841H91.2944V13.1329H96.9344C98.1877 13.1329 99.1277 12.9199 99.7543 12.4938C100.381 12.0676 100.694 11.4284 100.694 10.5762C100.694 9.72391 100.381 9.09725 99.7543 8.69619C99.1277 8.27006 98.1877 8.057 96.9344 8.057H91.8208V23.6233ZM120.455 29.3384C118.801 29.3384 117.309 29.0125 115.981 28.3608C114.677 27.7091 113.649 26.6939 112.897 25.3152C112.171 23.9115 111.807 22.1443 111.807 20.0137V8.62099H118.951V18.8481C118.951 20.4273 119.239 21.5553 119.816 22.2321C120.417 22.9089 121.257 23.2473 122.335 23.2473C123.037 23.2473 123.676 23.0843 124.253 22.7585C124.829 22.4326 125.293 21.9187 125.644 21.2169C125.995 20.4899 126.17 19.5625 126.17 18.4345V8.62099H133.314V29H126.509V23.2473L127.825 24.864C127.123 26.368 126.107 27.496 124.779 28.248C123.45 28.9749 122.009 29.3384 120.455 29.3384ZM147.203 29.3384C144.947 29.3384 142.929 28.8872 141.149 27.9848C139.395 27.0824 138.016 25.8416 137.013 24.2624C136.011 22.6582 135.509 20.8283 135.509 18.7729C135.509 16.7174 136.011 14.9001 137.013 13.3209C138.016 11.7418 139.395 10.5135 141.149 9.63618C142.929 8.73379 144.947 8.2826 147.203 8.2826C149.509 8.2826 151.502 8.77139 153.181 9.74898C154.861 10.7266 156.051 12.1052 156.753 13.8849L151.226 16.7049C150.75 15.7524 150.161 15.0631 149.459 14.6369C148.757 14.1857 147.992 13.9601 147.165 13.9601C146.338 13.9601 145.586 14.1481 144.909 14.5241C144.232 14.9001 143.693 15.4516 143.292 16.1785C142.916 16.8804 142.728 17.7452 142.728 18.7729C142.728 19.8257 142.916 20.7155 143.292 21.4425C143.693 22.1694 144.232 22.7209 144.909 23.0969C145.586 23.4729 146.338 23.6609 147.165 23.6609C147.992 23.6609 148.757 23.4478 149.459 23.0217C150.161 22.5705 150.75 21.8686 151.226 20.9161L156.753 23.736C156.051 25.5158 154.861 26.8944 153.181 27.872C151.502 28.8496 149.509 29.3384 147.203 29.3384ZM164.182 25.24L164.37 16.7049L172.68 8.62099H181.14L171.928 18.1337L168.281 21.0665L164.182 25.24ZM158.241 29V1.10106H165.385V29H158.241ZM173.206 29L166.965 21.1793L171.401 15.6897L181.854 29H173.206ZM189.599 29.3384C187.87 29.3384 186.178 29.1379 184.523 28.7368C182.894 28.3357 181.578 27.8344 180.575 27.2328L182.719 22.3449C183.671 22.9214 184.787 23.3851 186.065 23.736C187.343 24.0619 188.597 24.2248 189.825 24.2248C191.028 24.2248 191.855 24.0995 192.306 23.8488C192.783 23.5982 193.021 23.2598 193.021 22.8337C193.021 22.4326 192.795 22.1443 192.344 21.9689C191.918 21.7683 191.341 21.6179 190.614 21.5177C189.913 21.4174 189.136 21.3046 188.283 21.1793C187.431 21.0539 186.566 20.891 185.689 20.6905C184.837 20.4649 184.047 20.139 183.32 19.7129C182.618 19.2617 182.054 18.6601 181.628 17.9081C181.202 17.1561 180.989 16.2036 180.989 15.0505C180.989 13.7471 181.365 12.594 182.117 11.5914C182.894 10.5636 184.022 9.76152 185.501 9.18499C186.98 8.58339 188.785 8.2826 190.915 8.2826C192.344 8.2826 193.785 8.43299 195.239 8.73379C196.718 9.00952 197.959 9.43565 198.962 10.0122L196.818 14.8625C195.816 14.286 194.813 13.8975 193.81 13.6969C192.808 13.4713 191.855 13.3585 190.953 13.3585C189.75 13.3585 188.897 13.4964 188.396 13.7721C187.92 14.0479 187.682 14.3863 187.682 14.7873C187.682 15.1884 187.895 15.5017 188.321 15.7273C188.747 15.9279 189.311 16.0908 190.013 16.2161C190.74 16.3164 191.529 16.4292 192.382 16.5545C193.234 16.6548 194.086 16.8177 194.938 17.0433C195.816 17.2689 196.605 17.6073 197.307 18.0585C198.034 18.4846 198.611 19.0737 199.037 19.8257C199.463 20.5526 199.676 21.4926 199.676 22.6457C199.676 23.899 199.287 25.027 198.51 26.0296C197.758 27.0323 196.63 27.8344 195.126 28.436C193.647 29.0376 191.805 29.3384 189.599 29.3384Z"/>
</mask>
<path d="M16.8815 29.5264C14.7258 29.5264 12.6453 29.2632 10.6399 28.7368C8.6597 28.1853 7.04291 27.4835 5.78959 26.6312L8.23357 21.1417C9.41169 21.8937 10.7653 22.5203 12.2943 23.0217C13.8484 23.4979 15.39 23.736 16.9191 23.736C17.9468 23.736 18.774 23.6483 19.4007 23.4729C20.0273 23.2723 20.4785 23.0217 20.7543 22.7209C21.055 22.395 21.2054 22.019 21.2054 21.5929C21.2054 20.9913 20.9297 20.515 20.3783 20.1641C19.8268 19.8132 19.1124 19.5249 18.2351 19.2993C17.3577 19.0737 16.3802 18.8481 15.3023 18.6225C14.2495 18.3969 13.1842 18.1086 12.1063 17.7577C11.0535 17.4068 10.0885 16.9556 9.21116 16.4041C8.33384 15.8276 7.61944 15.0881 7.06798 14.1857C6.51652 13.2583 6.24079 12.0927 6.24079 10.689C6.24079 9.10979 6.66692 7.681 7.51918 6.40261C8.3965 5.12423 9.69996 4.0965 11.4295 3.31944C13.1591 2.54238 15.3148 2.15385 17.8967 2.15385C19.6263 2.15385 21.3182 2.35438 22.9726 2.75545C24.6521 3.13144 26.1435 3.69544 27.447 4.44743L25.1534 9.97458C23.9001 9.29778 22.6593 8.79646 21.431 8.47059C20.2028 8.11966 19.0121 7.9442 17.8591 7.9442C16.8314 7.9442 16.0042 8.057 15.3775 8.2826C14.7508 8.48313 14.2996 8.75886 14.0239 9.10979C13.7482 9.46072 13.6103 9.86178 13.6103 10.313C13.6103 10.8895 13.8735 11.3532 14.3999 11.7042C14.9514 12.03 15.6658 12.3058 16.5431 12.5314C17.4455 12.7319 18.4231 12.945 19.4759 13.1705C20.5537 13.3961 21.619 13.6844 22.6718 14.0353C23.7497 14.3612 24.7273 14.8124 25.6046 15.3889C26.4819 15.9404 27.1838 16.6798 27.7102 17.6073C28.2616 18.5097 28.5374 19.6502 28.5374 21.0289C28.5374 22.5579 28.0987 23.9742 27.2214 25.2776C26.3691 26.556 25.0782 27.5837 23.3486 28.3608C21.6441 29.1379 19.4884 29.5264 16.8815 29.5264ZM39.609 29.3384C37.0021 29.3384 34.9717 28.6992 33.5179 27.4208C32.064 26.1174 31.3371 24.1622 31.3371 21.5553V4.07143H38.481V21.4801C38.481 22.207 38.6815 22.7835 39.0826 23.2097C39.4837 23.6107 39.9975 23.8112 40.6242 23.8112C41.4765 23.8112 42.2034 23.5982 42.805 23.1721L44.5722 28.1728C43.9706 28.5739 43.2311 28.8621 42.3538 29.0376C41.4765 29.2381 40.5615 29.3384 39.609 29.3384ZM28.3667 14.7121V9.37299H43.1434V14.7121H28.3667ZM58.6444 29V25.2024L58.1556 24.2624V17.2689C58.1556 16.1409 57.8047 15.2761 57.1028 14.6745C56.426 14.0479 55.3356 13.7345 53.8317 13.7345C52.8541 13.7345 51.8639 13.8975 50.8613 14.2233C49.8586 14.5241 49.0064 14.9503 48.3045 15.5017L45.8981 10.6514C47.0512 9.89938 48.4298 9.32285 50.0341 8.92179C51.6634 8.49566 53.2802 8.2826 54.8844 8.2826C58.1932 8.2826 60.75 9.04712 62.5548 10.5762C64.3846 12.0802 65.2995 14.4489 65.2995 17.6825V29H58.6444ZM52.6285 29.3384C50.9991 29.3384 49.6205 29.0627 48.4925 28.5112C47.3645 27.9597 46.4997 27.2078 45.8981 26.2552C45.3216 25.3027 45.0333 24.2374 45.0333 23.0593C45.0333 21.8059 45.3467 20.7281 45.9733 19.8257C46.6251 18.8982 47.6152 18.1964 48.9437 17.7201C50.2722 17.2188 51.9893 16.9681 54.0949 16.9681H58.9076V20.6905H55.0724C53.9194 20.6905 53.1047 20.8785 52.6285 21.2545C52.1773 21.6305 51.9517 22.1318 51.9517 22.7585C51.9517 23.3851 52.1898 23.8864 52.6661 24.2624C53.1423 24.6384 53.7941 24.8264 54.6212 24.8264C55.3983 24.8264 56.1002 24.6384 56.7268 24.2624C57.3786 23.8614 57.8548 23.2598 58.1556 22.4577L59.1332 25.0896C58.7572 26.4934 58.0177 27.5587 56.9148 28.2856C55.837 28.9875 54.4082 29.3384 52.6285 29.3384ZM68.6809 29V8.62099H75.4864V14.5617L74.4712 12.8698C75.0728 11.3407 76.0504 10.2002 77.404 9.44818C78.7576 8.67113 80.3994 8.2826 82.3295 8.2826V14.7121C82.0037 14.662 81.7154 14.6369 81.4648 14.6369C81.2392 14.6119 80.9885 14.5993 80.7128 14.5993C79.2589 14.5993 78.0808 15.0004 77.1784 15.8025C76.276 16.5796 75.8248 17.858 75.8248 19.6377V29H68.6809ZM84.4513 29V2.68025H97.912C101.371 2.68025 103.953 3.31944 105.657 4.59783C107.362 5.85115 108.214 7.50554 108.214 9.56098C108.214 10.9146 107.851 12.1052 107.124 13.1329C106.422 14.1356 105.419 14.9377 104.116 15.5393C102.838 16.1159 101.308 16.4041 99.5287 16.4041L100.281 14.5993C102.136 14.5993 103.752 14.8876 105.131 15.4641C106.51 16.0156 107.575 16.8302 108.327 17.9081C109.104 18.9609 109.493 20.2518 109.493 21.7809C109.493 24.0619 108.565 25.8416 106.71 27.12C104.88 28.3733 102.198 29 98.6639 29H84.4513ZM91.8208 23.6233H98.0624C99.3407 23.6233 100.306 23.4102 100.958 22.9841C101.634 22.5329 101.973 21.8561 101.973 20.9537C101.973 20.0513 101.634 19.387 100.958 18.9609C100.306 18.5097 99.3407 18.2841 98.0624 18.2841H91.2944V13.1329H96.9344C98.1877 13.1329 99.1277 12.9199 99.7543 12.4938C100.381 12.0676 100.694 11.4284 100.694 10.5762C100.694 9.72391 100.381 9.09725 99.7543 8.69619C99.1277 8.27006 98.1877 8.057 96.9344 8.057H91.8208V23.6233ZM120.455 29.3384C118.801 29.3384 117.309 29.0125 115.981 28.3608C114.677 27.7091 113.649 26.6939 112.897 25.3152C112.171 23.9115 111.807 22.1443 111.807 20.0137V8.62099H118.951V18.8481C118.951 20.4273 119.239 21.5553 119.816 22.2321C120.417 22.9089 121.257 23.2473 122.335 23.2473C123.037 23.2473 123.676 23.0843 124.253 22.7585C124.829 22.4326 125.293 21.9187 125.644 21.2169C125.995 20.4899 126.17 19.5625 126.17 18.4345V8.62099H133.314V29H126.509V23.2473L127.825 24.864C127.123 26.368 126.107 27.496 124.779 28.248C123.45 28.9749 122.009 29.3384 120.455 29.3384ZM147.203 29.3384C144.947 29.3384 142.929 28.8872 141.149 27.9848C139.395 27.0824 138.016 25.8416 137.013 24.2624C136.011 22.6582 135.509 20.8283 135.509 18.7729C135.509 16.7174 136.011 14.9001 137.013 13.3209C138.016 11.7418 139.395 10.5135 141.149 9.63618C142.929 8.73379 144.947 8.2826 147.203 8.2826C149.509 8.2826 151.502 8.77139 153.181 9.74898C154.861 10.7266 156.051 12.1052 156.753 13.8849L151.226 16.7049C150.75 15.7524 150.161 15.0631 149.459 14.6369C148.757 14.1857 147.992 13.9601 147.165 13.9601C146.338 13.9601 145.586 14.1481 144.909 14.5241C144.232 14.9001 143.693 15.4516 143.292 16.1785C142.916 16.8804 142.728 17.7452 142.728 18.7729C142.728 19.8257 142.916 20.7155 143.292 21.4425C143.693 22.1694 144.232 22.7209 144.909 23.0969C145.586 23.4729 146.338 23.6609 147.165 23.6609C147.992 23.6609 148.757 23.4478 149.459 23.0217C150.161 22.5705 150.75 21.8686 151.226 20.9161L156.753 23.736C156.051 25.5158 154.861 26.8944 153.181 27.872C151.502 28.8496 149.509 29.3384 147.203 29.3384ZM164.182 25.24L164.37 16.7049L172.68 8.62099H181.14L171.928 18.1337L168.281 21.0665L164.182 25.24ZM158.241 29V1.10106H165.385V29H158.241ZM173.206 29L166.965 21.1793L171.401 15.6897L181.854 29H173.206ZM189.599 29.3384C187.87 29.3384 186.178 29.1379 184.523 28.7368C182.894 28.3357 181.578 27.8344 180.575 27.2328L182.719 22.3449C183.671 22.9214 184.787 23.3851 186.065 23.736C187.343 24.0619 188.597 24.2248 189.825 24.2248C191.028 24.2248 191.855 24.0995 192.306 23.8488C192.783 23.5982 193.021 23.2598 193.021 22.8337C193.021 22.4326 192.795 22.1443 192.344 21.9689C191.918 21.7683 191.341 21.6179 190.614 21.5177C189.913 21.4174 189.136 21.3046 188.283 21.1793C187.431 21.0539 186.566 20.891 185.689 20.6905C184.837 20.4649 184.047 20.139 183.32 19.7129C182.618 19.2617 182.054 18.6601 181.628 17.9081C181.202 17.1561 180.989 16.2036 180.989 15.0505C180.989 13.7471 181.365 12.594 182.117 11.5914C182.894 10.5636 184.022 9.76152 185.501 9.18499C186.98 8.58339 188.785 8.2826 190.915 8.2826C192.344 8.2826 193.785 8.43299 195.239 8.73379C196.718 9.00952 197.959 9.43565 198.962 10.0122L196.818 14.8625C195.816 14.286 194.813 13.8975 193.81 13.6969C192.808 13.4713 191.855 13.3585 190.953 13.3585C189.75 13.3585 188.897 13.4964 188.396 13.7721C187.92 14.0479 187.682 14.3863 187.682 14.7873C187.682 15.1884 187.895 15.5017 188.321 15.7273C188.747 15.9279 189.311 16.0908 190.013 16.2161C190.74 16.3164 191.529 16.4292 192.382 16.5545C193.234 16.6548 194.086 16.8177 194.938 17.0433C195.816 17.2689 196.605 17.6073 197.307 18.0585C198.034 18.4846 198.611 19.0737 199.037 19.8257C199.463 20.5526 199.676 21.4926 199.676 22.6457C199.676 23.899 199.287 25.027 198.51 26.0296C197.758 27.0323 196.63 27.8344 195.126 28.436C193.647 29.0376 191.805 29.3384 189.599 29.3384Z" fill="url(#paint0_linear_8_29)"/>
<path d="M10.6399 28.7368L10.3717 29.7001L10.3788 29.7021L10.386 29.704L10.6399 28.7368ZM5.78959 26.6312L4.87604 26.2245L4.53607 26.9881L5.22728 27.4581L5.78959 26.6312ZM8.23357 21.1417L8.77161 20.2988L7.79246 19.6738L7.32002 20.735L8.23357 21.1417ZM12.2943 23.0217L11.9828 23.9719L11.992 23.9749L12.0013 23.9778L12.2943 23.0217ZM19.4007 23.4729L19.6703 24.4358L19.688 24.4309L19.7054 24.4253L19.4007 23.4729ZM20.7543 22.7209L20.0194 22.0426L20.0171 22.0451L20.7543 22.7209ZM20.3783 20.1641L19.8414 21.0077V21.0077L20.3783 20.1641ZM18.2351 19.2993L18.4841 18.3308L18.2351 19.2993ZM15.3023 18.6225L15.0928 19.6003L15.0974 19.6013L15.3023 18.6225ZM12.1063 17.7577L11.7901 18.7064L11.7967 18.7086L12.1063 17.7577ZM9.21116 16.4041L8.66198 17.2398L8.67043 17.2454L8.67899 17.2508L9.21116 16.4041ZM7.06798 14.1857L6.20838 14.6969L6.2147 14.7072L7.06798 14.1857ZM7.51918 6.40261L6.69459 5.83672L6.68713 5.84791L7.51918 6.40261ZM11.4295 3.31944L11.0197 2.40727L11.4295 3.31944ZM22.9726 2.75545L22.737 3.7273L22.7456 3.72937L22.7542 3.73129L22.9726 2.75545ZM27.447 4.44743L28.3706 4.83071L28.7071 4.01992L27.9467 3.58124L27.447 4.44743ZM25.1534 9.97458L24.6783 10.8545L25.6526 11.3806L26.077 10.3579L25.1534 9.97458ZM21.431 8.47059L21.1563 9.43212L21.1654 9.43472L21.1746 9.43716L21.431 8.47059ZM15.3775 8.2826L15.6823 9.23502L15.6994 9.22956L15.7162 9.22348L15.3775 8.2826ZM14.0239 9.10979L13.2376 8.49197L14.0239 9.10979ZM14.3999 11.7042L13.8452 12.5362L13.8678 12.5513L13.8912 12.5651L14.3999 11.7042ZM16.5431 12.5314L16.2941 13.4998L16.31 13.504L16.3262 13.5075L16.5431 12.5314ZM19.4759 13.1705L19.2663 14.1484L19.271 14.1493L19.4759 13.1705ZM22.6718 14.0353L22.3556 14.984L22.369 14.9885L22.3824 14.9926L22.6718 14.0353ZM25.6046 15.3889L25.0554 16.2246L25.0639 16.2302L25.0724 16.2356L25.6046 15.3889ZM27.7102 17.6073L26.8405 18.1009L26.8485 18.115L26.8569 18.1288L27.7102 17.6073ZM27.2214 25.2776L26.3918 24.7193L26.3893 24.7229L27.2214 25.2776ZM23.3486 28.3608L22.9388 27.4486L22.9338 27.4509L23.3486 28.3608ZM16.8815 28.5264C14.808 28.5264 12.813 28.2734 10.8938 27.7696L10.386 29.704C12.4775 30.253 14.6435 30.5264 16.8815 30.5264V28.5264ZM10.9082 27.7735C8.99799 27.2415 7.48964 26.578 6.3519 25.8043L5.22728 27.4581C6.59619 28.389 8.3214 29.1292 10.3717 29.7001L10.9082 27.7735ZM6.70315 27.0379L9.14712 21.5484L7.32002 20.735L4.87604 26.2245L6.70315 27.0379ZM7.69553 21.9846C8.95406 22.7879 10.3858 23.4483 11.9828 23.9719L12.6059 22.0714C11.1448 21.5924 9.86932 20.9994 8.77161 20.2988L7.69553 21.9846ZM12.0013 23.9778C13.6444 24.4813 15.2847 24.736 16.9191 24.736V22.736C15.4954 22.736 14.0525 22.5145 12.5873 22.0655L12.0013 23.9778ZM16.9191 24.736C17.9918 24.736 18.9204 24.6458 19.6703 24.4358L19.131 22.5099C18.6276 22.6508 17.9018 22.736 16.9191 22.736V24.736ZM19.7054 24.4253C20.4066 24.2009 21.0469 23.8815 21.4914 23.3966L20.0171 22.0451C19.9101 22.1619 19.648 22.3438 19.0959 22.5204L19.7054 24.4253ZM21.4891 23.3991C21.9527 22.8968 22.2054 22.2814 22.2054 21.5929H20.2054C20.2054 21.7566 20.1574 21.8932 20.0194 22.0426L21.4891 23.3991ZM22.2054 21.5929C22.2054 20.6155 21.7252 19.8359 20.9151 19.3204L19.8414 21.0077C20.1342 21.1941 20.2054 21.3671 20.2054 21.5929H22.2054ZM20.9151 19.3204C20.248 18.8959 19.4271 18.5733 18.4841 18.3308L17.986 20.2678C18.7977 20.4765 19.4056 20.7304 19.8414 21.0077L20.9151 19.3204ZM18.4841 18.3308C17.5894 18.1007 16.5968 17.8718 15.5072 17.6437L15.0974 19.6013C16.1635 19.8244 17.1261 20.0466 17.986 20.2678L18.4841 18.3308ZM15.5118 17.6447C14.4946 17.4267 13.4626 17.1476 12.4159 16.8068L11.7967 18.7086C12.9058 19.0696 14.0045 19.3671 15.0928 19.6003L15.5118 17.6447ZM12.4226 16.809C11.4402 16.4816 10.5484 16.0635 9.74333 15.5575L8.67899 17.2508C9.62856 17.8476 10.6669 18.332 11.7901 18.7064L12.4226 16.809ZM9.76034 15.5684C9.00726 15.0735 8.39637 14.4417 7.92126 13.6643L6.2147 14.7072C6.84251 15.7345 7.66041 16.5816 8.66198 17.2398L9.76034 15.5684ZM7.92752 13.6747C7.49172 12.9417 7.24079 11.9657 7.24079 10.689H5.24079C5.24079 12.2197 5.54132 13.5748 6.20844 14.6968L7.92752 13.6747ZM7.24079 10.689C7.24079 9.30138 7.61167 8.06665 8.35123 6.95731L6.68713 5.84791C5.72217 7.29535 5.24079 8.91819 5.24079 10.689H7.24079ZM8.34369 6.96846C9.09624 5.87188 10.2399 4.95023 11.8394 4.23161L11.0197 2.40727C9.16006 3.24277 7.69676 4.37657 6.69466 5.83677L8.34369 6.96846ZM11.8394 4.23161C13.4024 3.52938 15.408 3.15385 17.8967 3.15385V1.15385C15.2217 1.15385 12.9159 1.55539 11.0197 2.40727L11.8394 4.23161ZM17.8967 3.15385C19.5482 3.15385 21.161 3.34523 22.737 3.7273L23.2082 1.7836C21.4755 1.36353 19.7044 1.15385 17.8967 1.15385V3.15385ZM22.7542 3.73129C24.3488 4.08829 25.743 4.61886 26.9473 5.31362L27.9467 3.58124C26.544 2.77201 24.9554 2.17459 23.1911 1.7796L22.7542 3.73129ZM26.5234 4.06415L24.2298 9.5913L26.077 10.3579L28.3706 4.83071L26.5234 4.06415ZM25.6286 9.09467C24.3142 8.38492 23.0003 7.85233 21.6875 7.50403L21.1746 9.43716C22.3183 9.74058 23.486 10.2107 24.6783 10.8545L25.6286 9.09467ZM21.7058 7.50907C20.3977 7.13533 19.1145 6.9442 17.8591 6.9442V8.9442C18.9098 8.9442 20.0079 9.104 21.1563 9.43212L21.7058 7.50907ZM17.8591 6.9442C16.7717 6.9442 15.8165 7.06175 15.0388 7.34171L15.7162 9.22348C16.1919 9.05225 16.891 8.9442 17.8591 8.9442V6.9442ZM15.0727 7.33017C14.3411 7.56428 13.6825 7.9257 13.2376 8.49197L14.8102 9.72761C14.9168 9.59202 15.1606 9.40197 15.6823 9.23502L15.0727 7.33017ZM13.2376 8.49197C12.8218 9.02117 12.6103 9.64039 12.6103 10.313H14.6103C14.6103 10.0832 14.6746 9.90026 14.8102 9.72761L13.2376 8.49197ZM12.6103 10.313C12.6103 11.2605 13.0726 12.0211 13.8452 12.5362L14.9546 10.8721C14.6744 10.6853 14.6103 10.5185 14.6103 10.313H12.6103ZM13.8912 12.5651C14.5495 12.9541 15.36 13.2597 16.2941 13.4998L16.7921 11.5629C15.9715 11.3518 15.3532 11.1059 14.9086 10.8432L13.8912 12.5651ZM16.3262 13.5075C17.2314 13.7087 18.2115 13.9223 19.2663 14.1484L19.6854 12.1927C18.6347 11.9676 17.6596 11.7551 16.76 11.5552L16.3262 13.5075ZM19.271 14.1493C20.3109 14.367 21.339 14.6452 22.3556 14.984L22.9881 13.0867C21.899 12.7237 20.7965 12.4253 19.6807 12.1918L19.271 14.1493ZM22.3824 14.9926C23.375 15.2926 24.264 15.7046 25.0554 16.2246L26.1538 14.5532C25.1905 13.9202 24.1244 13.4298 22.9612 13.0781L22.3824 14.9926ZM25.0724 16.2356C25.8056 16.6964 26.3932 17.3129 26.8405 18.1009L28.5799 17.1137C27.9743 16.0468 27.1582 15.1844 26.1368 14.5423L25.0724 16.2356ZM26.8569 18.1288C27.2874 18.8332 27.5374 19.7795 27.5374 21.0289H29.5374C29.5374 19.5209 29.2359 18.1862 28.5635 17.0859L26.8569 18.1288ZM27.5374 21.0289C27.5374 22.3532 27.1613 23.576 26.3918 24.7193L28.051 25.836C29.0361 24.3724 29.5374 22.7626 29.5374 21.0289H27.5374ZM26.3893 24.7229C25.6634 25.8118 24.537 26.7306 22.9388 27.4486L23.7584 29.273C25.6194 28.4369 27.0749 27.3002 28.0534 25.8323L26.3893 24.7229ZM22.9338 27.4509C21.4 28.1501 19.3977 28.5264 16.8815 28.5264V30.5264C19.5791 30.5264 21.8882 30.1256 23.7634 29.2707L22.9338 27.4509ZM33.5179 27.4208L32.8503 28.1654L32.8575 28.1718L33.5179 27.4208ZM31.3371 4.07143V3.07143H30.3371V4.07143H31.3371ZM38.481 4.07143H39.481V3.07143H38.481V4.07143ZM39.0826 23.2097L38.3544 23.895L38.3648 23.906L38.3755 23.9168L39.0826 23.2097ZM42.805 23.1721L43.7478 22.8389L43.3069 21.5911L42.227 22.356L42.805 23.1721ZM44.5722 28.1728L45.1269 29.0049L45.7743 28.5732L45.515 27.8396L44.5722 28.1728ZM42.3538 29.0376L42.1577 28.057L42.1443 28.0597L42.131 28.0627L42.3538 29.0376ZM28.3667 14.7121H27.3667V15.7121H28.3667V14.7121ZM28.3667 9.37299V8.37299H27.3667V9.37299H28.3667ZM43.1434 9.37299H44.1434V8.37299H43.1434V9.37299ZM43.1434 14.7121V15.7121H44.1434V14.7121H43.1434ZM39.609 28.3384C37.1601 28.3384 35.3944 27.7393 34.1782 26.6698L32.8575 28.1718C34.549 29.6591 36.8441 30.3384 39.609 30.3384V28.3384ZM34.1854 26.6762C33.0077 25.6203 32.3371 23.9781 32.3371 21.5553H30.3371C30.3371 24.3463 31.1204 26.6144 32.8503 28.1654L34.1854 26.6762ZM32.3371 21.5553V4.07143H30.3371V21.5553H32.3371ZM31.3371 5.07143H38.481V3.07143H31.3371V5.07143ZM37.481 4.07143V21.4801H39.481V4.07143H37.481ZM37.481 21.4801C37.481 22.397 37.739 23.2411 38.3544 23.895L39.8108 22.5243C39.6241 22.326 39.481 22.017 39.481 21.4801H37.481ZM38.3755 23.9168C38.9846 24.5259 39.7628 24.8112 40.6242 24.8112V22.8112C40.2322 22.8112 39.9827 22.6955 39.7897 22.5025L38.3755 23.9168ZM40.6242 24.8112C41.6501 24.8112 42.5871 24.5519 43.383 23.9881L42.227 22.356C41.8197 22.6445 41.3028 22.8112 40.6242 22.8112V24.8112ZM41.8621 23.5052L43.6293 28.506L45.515 27.8396L43.7478 22.8389L41.8621 23.5052ZM44.0175 27.3408C43.547 27.6544 42.9364 27.9013 42.1577 28.057L42.5499 30.0182C43.5258 29.823 44.3941 29.4934 45.1269 29.0049L44.0175 27.3408ZM42.131 28.0627C41.3309 28.2456 40.4909 28.3384 39.609 28.3384V30.3384C40.6322 30.3384 41.6221 30.2306 42.5766 30.0125L42.131 28.0627ZM29.3667 14.7121V9.37299H27.3667V14.7121H29.3667ZM28.3667 10.373H43.1434V8.37299H28.3667V10.373ZM42.1434 9.37299V14.7121H44.1434V9.37299H42.1434ZM43.1434 13.7121H28.3667V15.7121H43.1434V13.7121ZM58.6444 29H57.6444V30H58.6444V29ZM58.6444 25.2024H59.6444V24.958L59.5316 24.7411L58.6444 25.2024ZM58.1556 24.2624H57.1556V24.5069L57.2684 24.7238L58.1556 24.2624ZM57.1028 14.6745L56.4234 15.4083L56.4375 15.4213L56.452 15.4338L57.1028 14.6745ZM50.8613 14.2233L51.1486 15.1812L51.1595 15.1779L51.1704 15.1744L50.8613 14.2233ZM48.3045 15.5017L47.4087 15.9462L47.9553 17.0479L48.9223 16.288L48.3045 15.5017ZM45.8981 10.6514L45.3519 9.81376L44.6072 10.2994L45.0023 11.0958L45.8981 10.6514ZM50.0341 8.92179L50.2766 9.89199L50.2871 9.88925L50.0341 8.92179ZM62.5548 10.5762L61.9084 11.3392L61.914 11.344L61.9198 11.3487L62.5548 10.5762ZM65.2995 29V30H66.2995V29H65.2995ZM48.4925 28.5112L48.9317 27.6128L48.4925 28.5112ZM45.8981 26.2552L45.0426 26.773L45.0476 26.7812L45.0526 26.7892L45.8981 26.2552ZM45.9733 19.8257L45.1551 19.2507L45.152 19.2553L45.9733 19.8257ZM48.9437 17.7201L49.2812 18.6614L49.289 18.6586L49.2968 18.6557L48.9437 17.7201ZM58.9076 16.9681H59.9076V15.9681H58.9076V16.9681ZM58.9076 20.6905V21.6905H59.9076V20.6905H58.9076ZM52.6285 21.2545L52.0088 20.4696L51.9984 20.4778L51.9883 20.4863L52.6285 21.2545ZM52.6661 24.2624L52.0464 25.0473L52.6661 24.2624ZM56.7268 24.2624L57.2414 25.12L57.2509 25.1141L56.7268 24.2624ZM58.1556 22.4577L59.093 22.1095L58.1601 19.5977L57.2193 22.1065L58.1556 22.4577ZM59.1332 25.0896L60.0992 25.3484L60.1817 25.0404L60.0706 24.7414L59.1332 25.0896ZM56.9148 28.2856L57.4605 29.1236L57.4651 29.1206L56.9148 28.2856ZM59.6444 29V25.2024H57.6444V29H59.6444ZM59.5316 24.7411L59.0428 23.8011L57.2684 24.7238L57.7572 25.6638L59.5316 24.7411ZM59.1556 24.2624V17.2689H57.1556V24.2624H59.1556ZM59.1556 17.2689C59.1556 15.9192 58.7254 14.7482 57.7536 13.9153L56.452 15.4338C56.884 15.804 57.1556 16.3626 57.1556 17.2689H59.1556ZM57.7822 13.9408C56.8341 13.0628 55.4376 12.7345 53.8317 12.7345V14.7345C55.2337 14.7345 56.018 15.0329 56.4234 15.4083L57.7822 13.9408ZM53.8317 12.7345C52.7412 12.7345 51.6469 12.9165 50.5522 13.2723L51.1704 15.1744C52.081 14.8784 52.9669 14.7345 53.8317 14.7345V12.7345ZM50.5739 13.2655C49.4717 13.5962 48.5024 14.0745 47.6867 14.7154L48.9223 16.288C49.5103 15.8261 50.2455 15.4521 51.1486 15.1812L50.5739 13.2655ZM49.2003 15.0573L46.7939 10.2069L45.0023 11.0958L47.4087 15.9462L49.2003 15.0573ZM46.4444 11.489C47.4877 10.8086 48.7592 10.2713 50.2766 9.89193L49.7916 7.95165C48.1005 8.37442 46.6147 8.99018 45.3519 9.81376L46.4444 11.489ZM50.2871 9.88925C51.8379 9.48365 53.3697 9.2826 54.8844 9.2826V7.2826C53.1907 7.2826 51.4889 7.50767 49.7811 7.95433L50.2871 9.88925ZM54.8844 9.2826C58.0501 9.2826 60.3447 10.0144 61.9084 11.3392L63.2012 9.81319C61.1553 8.07989 58.3364 7.2826 54.8844 7.2826V9.2826ZM61.9198 11.3487C63.442 12.5999 64.2995 14.6325 64.2995 17.6825H66.2995C66.2995 14.2654 65.3272 11.5604 63.1897 9.80363L61.9198 11.3487ZM64.2995 17.6825V29H66.2995V17.6825H64.2995ZM65.2995 28H58.6444V30H65.2995V28ZM52.6285 28.3384C51.1077 28.3384 49.8885 28.0806 48.9317 27.6128L48.0533 29.4096C49.3525 30.0448 50.8906 30.3384 52.6285 30.3384V28.3384ZM48.9317 27.6128C47.9507 27.1332 47.2351 26.4995 46.7436 25.7212L45.0526 26.7892C45.7643 27.916 46.7784 28.7863 48.0533 29.4096L48.9317 27.6128ZM46.7536 25.7374C46.2772 24.9503 46.0333 24.0659 46.0333 23.0593H44.0333C44.0333 24.4089 44.366 25.6551 45.0426 26.773L46.7536 25.7374ZM46.0333 23.0593C46.0333 21.9801 46.3002 21.1081 46.7947 20.3961L45.152 19.2553C44.3931 20.348 44.0333 21.6318 44.0333 23.0593H46.0333ZM46.7915 20.4006C47.2983 19.6794 48.0988 19.0853 49.2812 18.6614L48.6062 16.7788C47.1315 17.3074 45.9518 18.1171 45.1551 19.2507L46.7915 20.4006ZM49.2968 18.6557C50.4719 18.2123 52.0572 17.9681 54.0949 17.9681V15.9681C51.9214 15.9681 50.0726 16.2253 48.5906 16.7845L49.2968 18.6557ZM54.0949 17.9681H58.9076V15.9681H54.0949V17.9681ZM57.9076 16.9681V20.6905H59.9076V16.9681H57.9076ZM58.9076 19.6905H55.0724V21.6905H58.9076V19.6905ZM55.0724 19.6905C53.8691 19.6905 52.7619 19.8751 52.0088 20.4696L53.2481 22.0394C53.4476 21.8819 53.9696 21.6905 55.0724 21.6905V19.6905ZM51.9883 20.4863C51.2922 21.0663 50.9517 21.8577 50.9517 22.7585H52.9517C52.9517 22.4059 53.0623 22.1946 53.2687 22.0227L51.9883 20.4863ZM50.9517 22.7585C50.9517 23.6795 51.3209 24.4746 52.0464 25.0473L53.2857 23.4776C53.0587 23.2983 52.9517 23.0907 52.9517 22.7585H50.9517ZM52.0464 25.0473C52.7537 25.6057 53.6502 25.8264 54.6213 25.8264V23.8264C53.9379 23.8264 53.531 23.6712 53.2857 23.4776L52.0464 25.0473ZM54.6213 25.8264C55.5676 25.8264 56.4493 25.5951 57.2413 25.1199L56.2123 23.405C55.751 23.6817 55.229 23.8264 54.6213 23.8264V25.8264ZM57.2509 25.1141C58.1144 24.5827 58.723 23.7927 59.0919 22.8088L57.2193 22.1065C56.9867 22.7269 56.6427 23.14 56.2027 23.4108L57.2509 25.1141ZM57.2182 22.8058L58.1958 25.4378L60.0706 24.7414L59.093 22.1095L57.2182 22.8058ZM58.1673 24.8309C57.8478 26.0237 57.242 26.8723 56.3645 27.4506L57.4651 29.1206C58.7935 28.245 59.6667 26.963 60.0992 25.3484L58.1673 24.8309ZM56.3692 27.4476C55.5048 28.0104 54.2862 28.3384 52.6285 28.3384V30.3384C54.5302 30.3384 56.1691 29.9645 57.4605 29.1236L56.3692 27.4476ZM68.6809 29H67.6809V30H68.6809V29ZM68.6809 8.62099V7.62099H67.6809V8.62099H68.6809ZM75.4864 8.62099H76.4864V7.62099H75.4864V8.62099ZM75.4864 14.5617L74.6289 15.0762L76.4864 18.1721V14.5617H75.4864ZM74.4712 12.8698L73.5406 12.5036L73.3603 12.9619L73.6137 13.3842L74.4712 12.8698ZM77.404 9.44818L77.8897 10.3224L77.9019 10.3154L77.404 9.44818ZM82.3295 8.2826H83.3295V7.2826H82.3295V8.2826ZM82.3295 14.7121L82.1775 15.7005L83.3295 15.8777V14.7121H82.3295ZM81.4648 14.6369L81.3543 15.6308L81.4094 15.6369H81.4648V14.6369ZM77.1784 15.8025L77.8309 16.5603L77.8369 16.5552L77.8428 16.5499L77.1784 15.8025ZM75.8248 29V30H76.8248V29H75.8248ZM69.6809 29V8.62099H67.6809V29H69.6809ZM68.6809 9.62099H75.4864V7.62099H68.6809V9.62099ZM74.4864 8.62099V14.5617H76.4864V8.62099H74.4864ZM76.3439 14.0472L75.3287 12.3553L73.6137 13.3842L74.6289 15.0762L76.3439 14.0472ZM75.4018 13.2359C75.9241 11.9084 76.7518 10.9545 77.8896 10.3223L76.9184 8.57403C75.349 9.44586 74.2216 10.773 73.5406 12.5036L75.4018 13.2359ZM77.9019 10.3154C79.072 9.64371 80.5332 9.2826 82.3295 9.2826V7.2826C80.2657 7.2826 78.4432 7.69855 76.9061 8.58093L77.9019 10.3154ZM81.3295 8.2826V14.7121H83.3295V8.2826H81.3295ZM82.4816 13.7238C82.1201 13.6681 81.7793 13.6369 81.4648 13.6369V15.6369C81.6515 15.6369 81.8872 15.6559 82.1775 15.7005L82.4816 13.7238ZM81.5752 13.6431C81.3061 13.6132 81.0179 13.5993 80.7128 13.5993V15.5993C80.9591 15.5993 81.1722 15.6106 81.3543 15.6308L81.5752 13.6431ZM80.7128 13.5993C79.0665 13.5993 77.6353 14.0585 76.514 15.0551L77.8428 16.5499C78.5263 15.9423 79.4513 15.5993 80.7128 15.5993V13.5993ZM76.5259 15.0448C75.3122 16.0899 74.8248 17.7128 74.8248 19.6377H76.8248C76.8248 18.0032 77.2398 17.0693 77.8309 16.5603L76.5259 15.0448ZM74.8248 19.6377V29H76.8248V19.6377H74.8248ZM75.8248 28H68.6809V30H75.8248V28ZM84.4513 29H83.4513V30H84.4513V29ZM84.4513 2.68025V1.68025H83.4513V2.68025H84.4513ZM105.657 4.59783L105.057 5.39787L105.065 5.40348L105.657 4.59783ZM107.124 13.1329L106.307 12.5555L106.305 12.5595L107.124 13.1329ZM104.116 15.5393L104.527 16.4509L104.535 16.4473L104.116 15.5393ZM99.5287 16.4041L98.6057 16.0195L98.0287 17.4041H99.5287V16.4041ZM100.281 14.5993V13.5993H99.6141L99.3577 14.2147L100.281 14.5993ZM105.131 15.4641L104.745 16.3867L104.752 16.3897L104.76 16.3926L105.131 15.4641ZM108.327 17.9081L107.507 18.4803L107.515 18.4912L107.522 18.502L108.327 17.9081ZM106.71 27.12L107.275 27.9451L107.278 27.9434L106.71 27.12ZM91.8208 23.6233H90.8208V24.6233H91.8208V23.6233ZM100.958 22.9841L101.505 23.8211L101.512 23.8161L100.958 22.9841ZM100.958 18.9609L100.388 19.7831L100.406 19.7955L100.425 19.8071L100.958 18.9609ZM91.2944 18.2841H90.2944V19.2841H91.2944V18.2841ZM91.2944 13.1329V12.1329H90.2944V13.1329H91.2944ZM99.7543 12.4938L100.317 13.3207H100.317L99.7543 12.4938ZM99.7543 8.69619L99.192 9.52312L99.2035 9.53095L99.2153 9.53846L99.7543 8.69619ZM91.8208 8.057V7.057H90.8208V8.057H91.8208ZM85.4513 29V2.68025H83.4513V29H85.4513ZM84.4513 3.68025H97.912V1.68025H84.4513V3.68025ZM97.912 3.68025C101.279 3.68025 103.604 4.30796 105.057 5.39783L106.257 3.79783C104.302 2.33092 101.463 1.68025 97.912 1.68025V3.68025ZM105.065 5.40348C106.522 6.47488 107.214 7.83447 107.214 9.56098H109.214C109.214 7.1766 108.202 5.22742 106.25 3.79218L105.065 5.40348ZM107.214 9.56098C107.214 10.7242 106.906 11.7096 106.307 12.5555L107.94 13.7104C108.796 12.5009 109.214 11.105 109.214 9.56098H107.214ZM106.305 12.5595C105.721 13.3939 104.868 14.091 103.697 14.6314L104.535 16.4473C105.971 15.7845 107.123 14.8774 107.943 13.7064L106.305 12.5595ZM103.705 14.6277C102.585 15.1325 101.204 15.4041 99.5287 15.4041V17.4041C101.413 17.4041 103.09 17.0992 104.527 16.4509L103.705 14.6277ZM100.452 16.7887L101.204 14.984L99.3577 14.2147L98.6057 16.0195L100.452 16.7887ZM100.281 15.5993C102.034 15.5993 103.514 15.872 104.745 16.3867L105.517 14.5415C103.99 13.9032 102.237 13.5993 100.281 13.5993V15.5993ZM104.76 16.3926C105.981 16.8813 106.881 17.5826 107.507 18.4803L109.147 17.3359C108.27 16.0779 107.038 15.1499 105.502 14.5357L104.76 16.3926ZM107.522 18.502C108.152 19.355 108.493 20.4283 108.493 21.7809H110.493C110.493 20.0754 110.056 18.5668 109.132 17.3143L107.522 18.502ZM108.493 21.7809C108.493 23.738 107.723 25.2077 106.143 26.2966L107.278 27.9434C109.408 26.4756 110.493 24.3859 110.493 21.7809H108.493ZM106.145 26.295C104.554 27.385 102.107 28 98.6639 28V30C102.29 30 105.207 29.3617 107.275 27.945L106.145 26.295ZM98.6639 28H84.4513V30H98.6639V28ZM91.8208 24.6233H98.0624V22.6233H91.8208V24.6233ZM98.0624 24.6233C99.4225 24.6233 100.617 24.4018 101.505 23.821L100.41 22.1471C99.9951 22.4186 99.259 22.6233 98.0624 22.6233V24.6233ZM101.512 23.8161C102.501 23.1568 102.973 22.1474 102.973 20.9537H100.973C100.973 21.5648 100.767 21.9089 100.403 22.152L101.512 23.8161ZM102.973 20.9537C102.973 19.7599 102.499 18.7501 101.49 18.1147L100.425 19.8071C100.769 20.024 100.973 20.3427 100.973 20.9537H102.973ZM101.527 18.1387C100.634 17.5204 99.4301 17.2841 98.0624 17.2841V19.2841C99.2514 19.2841 99.9779 19.499 100.388 19.7831L101.527 18.1387ZM98.0624 17.2841H91.2944V19.2841H98.0624V17.2841ZM92.2944 18.2841V13.1329H90.2944V18.2841H92.2944ZM91.2944 14.1329H96.9344V12.1329H91.2944V14.1329ZM96.9344 14.1329C98.2698 14.1329 99.4476 13.9116 100.317 13.3207L99.192 11.6668C98.8077 11.9282 98.1056 12.1329 96.9344 12.1329V14.1329ZM100.317 13.3207C101.255 12.6828 101.694 11.7114 101.694 10.5762H99.6943C99.6943 11.1455 99.5073 11.4524 99.192 11.6668L100.317 13.3207ZM101.694 10.5762C101.694 9.44121 101.253 8.46815 100.293 7.85392L99.2153 9.53846C99.5089 9.72636 99.6943 10.0066 99.6943 10.5762H101.694ZM100.317 7.86927C99.4476 7.27834 98.2698 7.057 96.9344 7.057V9.057C98.1056 9.057 98.8077 9.26178 99.192 9.52312L100.317 7.86927ZM96.9344 7.057H91.8208V9.057H96.9344V7.057ZM90.8208 8.057V23.6233H92.8208V8.057H90.8208ZM115.981 28.3608L115.533 29.2553L115.54 29.2586L115.981 28.3608ZM112.897 25.3152L112.009 25.7751L112.014 25.7846L112.02 25.7941L112.897 25.3152ZM111.807 8.62099V7.62099H110.807V8.62099H111.807ZM118.951 8.62099H119.951V7.62099H118.951V8.62099ZM119.816 22.2321L119.055 22.8805L119.061 22.8886L119.068 22.8964L119.816 22.2321ZM125.644 21.2169L126.538 21.6641L126.544 21.6516L125.644 21.2169ZM126.17 8.62099V7.62099H125.17V8.62099H126.17ZM133.314 8.62099H134.314V7.62099H133.314V8.62099ZM133.314 29V30H134.314V29H133.314ZM126.509 29H125.509V30H126.509V29ZM126.509 23.2473L127.284 22.616L125.509 20.4346V23.2473H126.509ZM127.825 24.864L128.731 25.2869L128.996 24.7189L128.6 24.2328L127.825 24.864ZM124.779 28.248L125.259 29.1253L125.265 29.1218L125.272 29.1183L124.779 28.248ZM120.455 28.3384C118.935 28.3384 117.597 28.0399 116.421 27.463L115.54 29.2586C117.021 29.9851 118.666 30.3384 120.455 30.3384V28.3384ZM116.428 27.4664C115.321 26.9131 114.438 26.0504 113.775 24.8364L112.02 25.7941C112.861 27.3373 114.033 28.505 115.533 29.2552L116.428 27.4664ZM113.785 24.8554C113.153 23.6345 112.807 22.0374 112.807 20.0137H110.807C110.807 22.2512 111.188 24.1886 112.009 25.7751L113.785 24.8554ZM112.807 20.0137V8.62099H110.807V20.0137H112.807ZM111.807 9.62099H118.951V7.62099H111.807V9.62099ZM117.951 8.62099V18.8481H119.951V8.62099H117.951ZM117.951 18.8481C117.951 20.4992 118.243 21.9275 119.055 22.8805L120.577 21.5836C120.236 21.183 119.951 20.3554 119.951 18.8481H117.951ZM119.068 22.8964C119.896 23.8275 121.031 24.2473 122.335 24.2473V22.2473C121.483 22.2473 120.939 21.9903 120.563 21.5677L119.068 22.8964ZM122.335 24.2473C123.199 24.2473 124.009 24.0448 124.745 23.629L123.761 21.8879C123.343 22.1238 122.875 22.2473 122.335 22.2473V24.2473ZM124.745 23.629C125.524 23.1883 126.115 22.5104 126.538 21.6641L124.749 20.7697C124.471 21.3271 124.134 21.6769 123.761 21.8879L124.745 23.629ZM126.544 21.6516C126.981 20.7463 127.17 19.6569 127.17 18.4345H125.17C125.17 19.4681 125.008 20.2336 124.743 20.7821L126.544 21.6516ZM127.17 18.4345V8.62099H125.17V18.4345H127.17ZM126.17 9.62099H133.314V7.62099H126.17V9.62099ZM132.314 8.62099V29H134.314V8.62099H132.314ZM133.314 28H126.509V30H133.314V28ZM127.509 29V23.2473H125.509V29H127.509ZM125.733 23.8785L127.049 25.4953L128.6 24.2328L127.284 22.616L125.733 23.8785ZM126.918 24.4412C126.296 25.7739 125.418 26.7373 124.286 27.3778L125.272 29.1183C126.797 28.2548 127.949 26.9621 128.731 25.2869L126.918 24.4412ZM124.299 27.3707C123.122 28.015 121.846 28.3384 120.455 28.3384V30.3384C122.172 30.3384 123.779 29.9349 125.259 29.1253L124.299 27.3707ZM141.149 27.9848L140.692 28.8741L140.697 28.8767L141.149 27.9848ZM137.013 24.2624L136.165 24.7925L136.169 24.7985L137.013 24.2624ZM137.013 13.3209L136.169 12.7849L137.013 13.3209ZM141.149 9.63618L141.596 10.5306L141.601 10.5281L141.149 9.63618ZM153.181 9.74898L153.684 8.88474L153.181 9.74898ZM156.753 13.8849L157.208 14.7757L158.017 14.363L157.683 13.5181L156.753 13.8849ZM151.226 16.7049L150.331 17.1521L150.782 18.0539L151.68 17.5957L151.226 16.7049ZM149.459 14.6369L148.918 15.4781L148.929 15.4851L148.94 15.4917L149.459 14.6369ZM144.909 14.5241L144.424 13.65L144.909 14.5241ZM143.292 16.1785L142.417 15.6954L142.411 15.7063L143.292 16.1785ZM143.292 21.4425L142.404 21.9019L142.41 21.9138L142.417 21.9255L143.292 21.4425ZM149.459 23.0217L149.978 23.8764L149.989 23.8698L149.999 23.8628L149.459 23.0217ZM151.226 20.9161L151.68 20.0253L150.782 19.5671L150.331 20.4689L151.226 20.9161ZM156.753 23.736L157.683 24.1029L158.017 23.258L157.208 22.8453L156.753 23.736ZM153.181 27.872L153.684 28.7363L153.181 27.872ZM147.203 28.3384C145.083 28.3384 143.224 27.9154 141.601 27.0929L140.697 28.8767C142.634 29.859 144.81 30.3384 147.203 30.3384V28.3384ZM141.607 27.0955C140.001 26.2698 138.76 25.1472 137.857 23.7264L136.169 24.7985C137.272 26.536 138.788 27.8951 140.692 28.8741L141.607 27.0955ZM137.861 23.7324C136.966 22.3008 136.509 20.6578 136.509 18.7729H134.509C134.509 20.9989 135.055 23.0156 136.165 24.7924L137.861 23.7324ZM136.509 18.7729C136.509 16.8878 136.966 15.2602 137.857 13.857L136.169 12.7849C135.055 14.54 134.509 16.5471 134.509 18.7729H136.509ZM137.857 13.857C138.758 12.4387 139.996 11.3309 141.596 10.5306L140.702 8.74175C138.793 9.69616 137.274 11.0448 136.169 12.7849L137.857 13.857ZM141.601 10.5281C143.224 9.70556 145.083 9.2826 147.203 9.2826V7.2826C144.81 7.2826 142.634 7.76202 140.697 8.74428L141.601 10.5281ZM147.203 9.2826C149.365 9.2826 151.178 9.73987 152.678 10.6132L153.684 8.88474C151.826 7.80291 149.652 7.2826 147.203 7.2826V9.2826ZM152.678 10.6132C154.167 11.4797 155.205 12.6847 155.823 14.2518L157.683 13.5181C156.898 11.5257 155.555 9.97346 153.684 8.88474L152.678 10.6132ZM156.299 12.9942L150.771 15.8142L151.68 17.5957L157.208 14.7757L156.299 12.9942ZM152.12 16.2577C151.584 15.1859 150.882 14.3312 149.978 13.7821L148.94 15.4917C149.439 15.795 149.915 16.3189 150.331 17.1521L152.12 16.2577ZM149.999 13.7958C149.138 13.2418 148.186 12.9601 147.165 12.9601V14.9601C147.799 14.9601 148.376 15.1297 148.918 15.4781L149.999 13.7958ZM147.165 12.9601C146.18 12.9601 145.259 13.1858 144.424 13.65L145.395 15.3983C145.913 15.1105 146.496 14.9601 147.165 14.9601V12.9601ZM144.424 13.65C143.571 14.1238 142.902 14.8165 142.417 15.6954L144.168 16.6616C144.485 16.0867 144.894 15.6765 145.395 15.3983L144.424 13.65ZM142.411 15.7063C141.938 16.5895 141.728 17.6269 141.728 18.7729H143.728C143.728 17.8634 143.895 17.1712 144.174 16.6507L142.411 15.7063ZM141.728 18.7729C141.728 19.9411 141.937 20.9982 142.404 21.9019L144.181 20.983C143.896 20.4329 143.728 19.7102 143.728 18.7729H141.728ZM142.417 21.9255C142.902 22.8045 143.571 23.4972 144.424 23.971L145.395 22.2227C144.894 21.9445 144.485 21.5343 144.168 20.9594L142.417 21.9255ZM144.424 23.971C145.259 24.4352 146.18 24.6609 147.165 24.6609V22.6609C146.496 22.6609 145.913 22.5105 145.395 22.2227L144.424 23.971ZM147.165 24.6609C148.174 24.6609 149.118 24.3983 149.978 23.8764L148.94 22.1669C148.396 22.4973 147.811 22.6609 147.165 22.6609V24.6609ZM149.999 23.8628C150.889 23.2911 151.586 22.4328 152.12 21.3633L150.331 20.4689C149.914 21.3044 149.432 21.8498 148.918 22.1805L149.999 23.8628ZM150.771 21.8068L156.299 24.6268L157.208 22.8453L151.68 20.0253L150.771 21.8068ZM155.823 23.3692C155.205 24.9363 154.167 26.1413 152.678 27.0078L153.684 28.7363C155.555 27.6475 156.898 26.0953 157.683 24.1029L155.823 23.3692ZM152.678 27.0078C151.178 27.8811 149.365 28.3384 147.203 28.3384V30.3384C149.652 30.3384 151.826 29.8181 153.684 28.7363L152.678 27.0078ZM164.182 25.24L163.182 25.218L163.127 27.742L164.896 25.9407L164.182 25.24ZM164.37 16.7049L163.673 15.9881L163.379 16.2736L163.37 16.6829L164.37 16.7049ZM172.68 8.62099V7.62099H172.274L171.982 7.90422L172.68 8.62099ZM181.14 8.62099L181.858 9.31665L183.5 7.62099H181.14V8.62099ZM171.928 18.1337L172.554 18.913L172.603 18.874L172.646 18.8294L171.928 18.1337ZM168.281 21.0665L167.654 20.2872L167.608 20.324L167.567 20.3658L168.281 21.0665ZM158.241 29H157.241V30H158.241V29ZM158.241 1.10106V0.101063H157.241V1.10106H158.241ZM165.385 1.10106H166.385V0.101063H165.385V1.10106ZM165.385 29V30H166.385V29H165.385ZM173.206 29L172.425 29.6238L172.725 30H173.206V29ZM166.965 21.1793L166.187 20.5507L165.682 21.1753L166.183 21.8031L166.965 21.1793ZM171.401 15.6897L172.188 15.0721L171.413 14.0849L170.624 15.0611L171.401 15.6897ZM181.854 29V30H183.911L182.641 28.3824L181.854 29ZM165.182 25.2621L165.37 16.7269L163.37 16.6829L163.182 25.218L165.182 25.2621ZM165.068 17.4217L173.377 9.33776L171.982 7.90422L163.673 15.9881L165.068 17.4217ZM172.68 9.62099H181.14V7.62099H172.68V9.62099ZM180.421 7.92533L171.209 17.438L172.646 18.8294L181.858 9.31665L180.421 7.92533ZM171.301 17.3544L167.654 20.2872L168.907 21.8458L172.554 18.913L171.301 17.3544ZM167.567 20.3658L163.469 24.5394L164.896 25.9407L168.994 21.7671L167.567 20.3658ZM159.241 29V1.10106H157.241V29H159.241ZM158.241 2.10106H165.385V0.101063H158.241V2.10106ZM164.385 1.10106V29H166.385V1.10106H164.385ZM165.385 28H158.241V30H165.385V28ZM173.988 28.3762L167.746 20.5555L166.183 21.8031L172.425 29.6238L173.988 28.3762ZM167.742 21.8079L172.179 16.3183L170.624 15.0611L166.187 20.5507L167.742 21.8079ZM170.615 16.3074L181.068 29.6176L182.641 28.3824L172.188 15.0721L170.615 16.3074ZM181.854 28H173.206V30H181.854V28ZM184.523 28.7368L184.284 29.7078L184.288 29.7087L184.523 28.7368ZM180.575 27.2328L179.66 26.8313L179.306 27.6374L180.061 28.0903L180.575 27.2328ZM182.719 22.3449L183.236 21.4894L182.261 20.8988L181.803 21.9433L182.719 22.3449ZM186.065 23.736L185.8 24.7004L185.809 24.7028L185.818 24.7051L186.065 23.736ZM192.306 23.8488L191.841 22.9639L191.831 22.9692L191.821 22.9747L192.306 23.8488ZM192.344 21.9689L191.918 22.8737L191.949 22.8884L191.982 22.9009L192.344 21.9689ZM190.614 21.5177L190.473 22.5076L190.478 22.5083L190.614 21.5177ZM188.283 21.1793L188.138 22.1686L188.283 21.1793ZM185.689 20.6905L185.433 21.6572L185.449 21.6615L185.466 21.6653L185.689 20.6905ZM183.32 19.7129L182.779 20.5541L182.797 20.5652L182.814 20.5756L183.32 19.7129ZM181.628 17.9081L182.498 17.4151L181.628 17.9081ZM182.117 11.5914L181.319 10.9883L181.317 10.9914L182.117 11.5914ZM185.501 9.18499L185.864 10.1167L185.871 10.114L185.878 10.1113L185.501 9.18499ZM195.239 8.73379L195.037 9.71305L195.046 9.71505L195.056 9.71685L195.239 8.73379ZM198.962 10.0122L199.876 10.4163L200.24 9.59363L199.46 9.14527L198.962 10.0122ZM196.818 14.8625L196.32 15.7294L197.284 16.2836L197.733 15.2667L196.818 14.8625ZM193.81 13.6969L193.591 14.6726L193.603 14.6752L193.614 14.6775L193.81 13.6969ZM188.396 13.7721L187.914 12.8959L187.905 12.9012L187.895 12.9067L188.396 13.7721ZM188.321 15.7273L187.853 16.6111L187.874 16.6221L187.895 16.6321L188.321 15.7273ZM190.013 16.2161L189.837 17.2005L189.857 17.204L189.876 17.2067L190.013 16.2161ZM192.382 16.5545L192.236 17.5439L192.25 17.546L192.265 17.5477L192.382 16.5545ZM194.938 17.0433L194.683 18.01L194.689 18.0118L194.938 17.0433ZM197.307 18.0585L196.766 18.8997L196.784 18.9108L196.801 18.9212L197.307 18.0585ZM199.037 19.8257L198.167 20.3187L198.17 20.3251L198.174 20.3314L199.037 19.8257ZM198.51 26.0296L197.72 25.4171L197.715 25.4233L197.71 25.4296L198.51 26.0296ZM195.126 28.436L194.755 27.5075L194.75 27.5097L195.126 28.436ZM189.599 28.3384C187.948 28.3384 186.335 28.147 184.759 27.765L184.288 29.7087C186.02 30.1287 187.792 30.3384 189.599 30.3384V28.3384ZM184.762 27.7658C183.192 27.3792 181.979 26.9085 181.09 26.3753L180.061 28.0903C181.177 28.7603 182.596 29.2923 184.284 29.7078L184.762 27.7658ZM181.491 27.6344L183.634 22.7464L181.803 21.9433L179.66 26.8313L181.491 27.6344ZM182.201 23.2004C183.246 23.8327 184.449 24.3295 185.8 24.7004L186.33 22.7717C185.124 22.4407 184.097 22.01 183.236 21.4894L182.201 23.2004ZM185.818 24.7051C187.171 25.05 188.507 25.2248 189.825 25.2248V23.2248C188.686 23.2248 187.516 23.0738 186.312 22.767L185.818 24.7051ZM189.825 25.2248C190.457 25.2248 191.018 25.1922 191.497 25.1196C191.965 25.0487 192.418 24.931 192.792 24.723L191.821 22.9747C191.744 23.0174 191.557 23.0876 191.198 23.1421C190.85 23.1948 190.396 23.2248 189.825 23.2248V25.2248ZM192.772 24.7338C193.475 24.3639 194.021 23.7337 194.021 22.8337H192.021C192.021 22.8458 192.019 22.8461 192.021 22.8394C192.024 22.8324 192.026 22.8291 192.024 22.8316C192.02 22.8382 191.979 22.891 191.841 22.9639L192.772 24.7338ZM194.021 22.8337C194.021 22.4324 193.903 22.0375 193.639 21.7004C193.385 21.3761 193.047 21.1693 192.706 21.0369L191.982 22.9009C192.092 22.9439 192.092 22.969 192.064 22.933C192.05 22.9144 192.036 22.8904 192.028 22.865C192.02 22.8408 192.021 22.8279 192.021 22.8337H194.021ZM192.77 21.064C192.216 20.8034 191.529 20.6343 190.751 20.5271L190.478 22.5083C191.154 22.6015 191.62 22.7332 191.918 22.8737L192.77 21.064ZM190.756 20.5277C190.056 20.4277 189.28 20.3151 188.429 20.1899L188.138 22.1686C188.991 22.2941 189.77 22.4071 190.473 22.5076L190.756 20.5277ZM188.429 20.1899C187.604 20.0686 186.765 19.9106 185.912 19.7156L185.466 21.6653C186.368 21.8715 187.258 22.0393 188.138 22.1686L188.429 20.1899ZM185.945 19.7238C185.176 19.5203 184.471 19.2284 183.826 18.8502L182.814 20.5756C183.623 21.0496 184.497 21.4095 185.433 21.6572L185.945 19.7238ZM183.861 18.8717C183.3 18.5114 182.847 18.0313 182.498 17.4151L180.758 18.4011C181.261 19.2889 181.936 20.012 182.779 20.5541L183.861 18.8717ZM182.498 17.4151C182.181 16.8554 181.989 16.0865 181.989 15.0505H179.989C179.989 16.3207 180.223 17.4568 180.758 18.4011L182.498 17.4151ZM181.989 15.0505C181.989 13.9542 182.3 13.0136 182.917 12.1914L181.317 10.9914C180.43 12.1744 179.989 13.54 179.989 15.0505H181.989ZM182.915 12.1945C183.557 11.3452 184.518 10.6416 185.864 10.1167L185.138 8.25328C183.526 8.88146 182.231 9.78209 181.319 10.9883L182.915 12.1945ZM185.878 10.1113C187.204 9.57168 188.873 9.2826 190.915 9.2826V7.2826C188.696 7.2826 186.755 7.59511 185.124 8.25869L185.878 10.1113ZM190.915 9.2826C192.273 9.2826 193.647 9.42551 195.037 9.71305L195.442 7.75453C193.924 7.44048 192.415 7.2826 190.915 7.2826V9.2826ZM195.056 9.71685C196.456 9.97779 197.583 10.3728 198.463 10.8791L199.46 9.14527C198.335 8.4985 196.981 8.04125 195.423 7.75073L195.056 9.71685ZM198.047 9.60802L195.904 14.4584L197.733 15.2667L199.876 10.4163L198.047 9.60802ZM197.317 13.9956C196.232 13.3721 195.128 12.9407 194.007 12.7164L193.614 14.6775C194.498 14.8542 195.399 15.1999 196.32 15.7294L197.317 13.9956ZM194.03 12.7213C192.965 12.4817 191.938 12.3585 190.953 12.3585V14.3585C191.772 14.3585 192.651 14.461 193.591 14.6726L194.03 12.7213ZM190.953 12.3585C189.729 12.3585 188.653 12.4894 187.914 12.8959L188.878 14.6484C189.141 14.5035 189.771 14.3585 190.953 14.3585V12.3585ZM187.895 12.9067C187.239 13.2863 186.682 13.9016 186.682 14.7873H188.682C188.682 14.7869 188.682 14.7888 188.681 14.7925C188.681 14.7963 188.68 14.8006 188.678 14.8048C188.675 14.8144 188.673 14.8158 188.678 14.8082C188.691 14.7898 188.745 14.7257 188.897 14.6376L187.895 12.9067ZM186.682 14.7873C186.682 15.6408 187.179 16.2542 187.853 16.6111L188.789 14.8435C188.682 14.7868 188.662 14.7509 188.668 14.7608C188.672 14.7659 188.677 14.7752 188.68 14.7859C188.683 14.7961 188.682 14.7981 188.682 14.7873H186.682ZM187.895 16.6321C188.43 16.884 189.088 17.0668 189.837 17.2005L190.189 15.2317C189.534 15.1148 189.064 14.9717 188.747 14.8225L187.895 16.6321ZM189.876 17.2067C190.6 17.3065 191.386 17.4189 192.236 17.5439L192.527 15.5652C191.672 15.4395 190.88 15.3262 190.15 15.2255L189.876 17.2067ZM192.265 17.5477C193.069 17.6423 193.875 17.7962 194.683 18.01L195.194 16.0766C194.298 15.8393 193.399 15.6673 192.498 15.5614L192.265 17.5477ZM194.689 18.0118C195.472 18.2131 196.162 18.511 196.766 18.8997L197.848 17.2173C197.049 16.7037 196.159 16.3247 195.187 16.0748L194.689 18.0118ZM196.801 18.9212C197.372 19.2559 197.825 19.7157 198.167 20.3187L199.907 19.3327C199.396 18.4317 198.696 17.7133 197.813 17.1958L196.801 18.9212ZM198.174 20.3314C198.483 20.8586 198.676 21.6076 198.676 22.6457H200.676C200.676 21.3777 200.443 20.2466 199.899 19.32L198.174 20.3314ZM198.676 22.6457C198.676 23.6743 198.363 24.5874 197.72 25.4171L199.301 26.6422C200.212 25.4665 200.676 24.1237 200.676 22.6457H198.676ZM197.71 25.4296C197.096 26.2485 196.138 26.9545 194.755 27.5075L195.498 29.3645C197.123 28.7143 198.421 27.8161 199.31 26.6296L197.71 25.4296ZM194.75 27.5097C193.427 28.0479 191.722 28.3384 189.599 28.3384V30.3384C191.888 30.3384 193.868 30.0273 195.503 29.3623L194.75 27.5097Z" fill="black" mask="url(#path-1-outside-1_8_29)"/>
<path d="M10.6399 28.7368L10.3717 29.7001L10.3788 29.7021L10.386 29.704L10.6399 28.7368ZM5.78959 26.6312L4.87604 26.2245L4.53607 26.9881L5.22728 27.4581L5.78959 26.6312ZM8.23357 21.1417L8.77161 20.2988L7.79246 19.6738L7.32002 20.735L8.23357 21.1417ZM12.2943 23.0217L11.9828 23.9719L11.992 23.9749L12.0013 23.9778L12.2943 23.0217ZM19.4007 23.4729L19.6703 24.4358L19.688 24.4309L19.7054 24.4253L19.4007 23.4729ZM20.7543 22.7209L20.0194 22.0426L20.0171 22.0451L20.7543 22.7209ZM20.3783 20.1641L19.8414 21.0077V21.0077L20.3783 20.1641ZM18.2351 19.2993L18.4841 18.3308L18.2351 19.2993ZM15.3023 18.6225L15.0928 19.6003L15.0974 19.6013L15.3023 18.6225ZM12.1063 17.7577L11.7901 18.7064L11.7967 18.7086L12.1063 17.7577ZM9.21116 16.4041L8.66198 17.2398L8.67043 17.2454L8.67899 17.2508L9.21116 16.4041ZM7.06798 14.1857L6.20838 14.6969L6.2147 14.7072L7.06798 14.1857ZM7.51918 6.40261L6.69459 5.83672L6.68713 5.84791L7.51918 6.40261ZM11.4295 3.31944L11.0197 2.40727L11.4295 3.31944ZM22.9726 2.75545L22.737 3.7273L22.7456 3.72937L22.7542 3.73129L22.9726 2.75545ZM27.447 4.44743L28.3706 4.83071L28.7071 4.01992L27.9467 3.58124L27.447 4.44743ZM25.1534 9.97458L24.6783 10.8545L25.6526 11.3806L26.077 10.3579L25.1534 9.97458ZM21.431 8.47059L21.1563 9.43212L21.1654 9.43472L21.1746 9.43716L21.431 8.47059ZM15.3775 8.2826L15.6823 9.23502L15.6994 9.22956L15.7162 9.22348L15.3775 8.2826ZM14.0239 9.10979L13.2376 8.49197L14.0239 9.10979ZM14.3999 11.7042L13.8452 12.5362L13.8678 12.5513L13.8912 12.5651L14.3999 11.7042ZM16.5431 12.5314L16.2941 13.4998L16.31 13.504L16.3262 13.5075L16.5431 12.5314ZM19.4759 13.1705L19.2663 14.1484L19.271 14.1493L19.4759 13.1705ZM22.6718 14.0353L22.3556 14.984L22.369 14.9885L22.3824 14.9926L22.6718 14.0353ZM25.6046 15.3889L25.0554 16.2246L25.0639 16.2302L25.0724 16.2356L25.6046 15.3889ZM27.7102 17.6073L26.8405 18.1009L26.8485 18.115L26.8569 18.1288L27.7102 17.6073ZM27.2214 25.2776L26.3918 24.7193L26.3893 24.7229L27.2214 25.2776ZM23.3486 28.3608L22.9388 27.4486L22.9338 27.4509L23.3486 28.3608ZM16.8815 28.5264C14.808 28.5264 12.813 28.2734 10.8938 27.7696L10.386 29.704C12.4775 30.253 14.6435 30.5264 16.8815 30.5264V28.5264ZM10.9082 27.7735C8.99799 27.2415 7.48964 26.578 6.3519 25.8043L5.22728 27.4581C6.59619 28.389 8.3214 29.1292 10.3717 29.7001L10.9082 27.7735ZM6.70315 27.0379L9.14712 21.5484L7.32002 20.735L4.87604 26.2245L6.70315 27.0379ZM7.69553 21.9846C8.95406 22.7879 10.3858 23.4483 11.9828 23.9719L12.6059 22.0714C11.1448 21.5924 9.86932 20.9994 8.77161 20.2988L7.69553 21.9846ZM12.0013 23.9778C13.6444 24.4813 15.2847 24.736 16.9191 24.736V22.736C15.4954 22.736 14.0525 22.5145 12.5873 22.0655L12.0013 23.9778ZM16.9191 24.736C17.9918 24.736 18.9204 24.6458 19.6703 24.4358L19.131 22.5099C18.6276 22.6508 17.9018 22.736 16.9191 22.736V24.736ZM19.7054 24.4253C20.4066 24.2009 21.0469 23.8815 21.4914 23.3966L20.0171 22.0451C19.9101 22.1619 19.648 22.3438 19.0959 22.5204L19.7054 24.4253ZM21.4891 23.3991C21.9527 22.8968 22.2054 22.2814 22.2054 21.5929H20.2054C20.2054 21.7566 20.1574 21.8932 20.0194 22.0426L21.4891 23.3991ZM22.2054 21.5929C22.2054 20.6155 21.7252 19.8359 20.9151 19.3204L19.8414 21.0077C20.1342 21.1941 20.2054 21.3671 20.2054 21.5929H22.2054ZM20.9151 19.3204C20.248 18.8959 19.4271 18.5733 18.4841 18.3308L17.986 20.2678C18.7977 20.4765 19.4056 20.7304 19.8414 21.0077L20.9151 19.3204ZM18.4841 18.3308C17.5894 18.1007 16.5968 17.8718 15.5072 17.6437L15.0974 19.6013C16.1635 19.8244 17.1261 20.0466 17.986 20.2678L18.4841 18.3308ZM15.5118 17.6447C14.4946 17.4267 13.4626 17.1476 12.4159 16.8068L11.7967 18.7086C12.9058 19.0696 14.0045 19.3671 15.0928 19.6003L15.5118 17.6447ZM12.4226 16.809C11.4402 16.4816 10.5484 16.0635 9.74333 15.5575L8.67899 17.2508C9.62856 17.8476 10.6669 18.332 11.7901 18.7064L12.4226 16.809ZM9.76034 15.5684C9.00726 15.0735 8.39637 14.4417 7.92126 13.6643L6.2147 14.7072C6.84251 15.7345 7.66041 16.5816 8.66198 17.2398L9.76034 15.5684ZM7.92752 13.6747C7.49172 12.9417 7.24079 11.9657 7.24079 10.689H5.24079C5.24079 12.2197 5.54132 13.5748 6.20844 14.6968L7.92752 13.6747ZM7.24079 10.689C7.24079 9.30138 7.61167 8.06665 8.35123 6.95731L6.68713 5.84791C5.72217 7.29535 5.24079 8.91819 5.24079 10.689H7.24079ZM8.34369 6.96846C9.09624 5.87188 10.2399 4.95023 11.8394 4.23161L11.0197 2.40727C9.16006 3.24277 7.69676 4.37657 6.69466 5.83677L8.34369 6.96846ZM11.8394 4.23161C13.4024 3.52938 15.408 3.15385 17.8967 3.15385V1.15385C15.2217 1.15385 12.9159 1.55539 11.0197 2.40727L11.8394 4.23161ZM17.8967 3.15385C19.5482 3.15385 21.161 3.34523 22.737 3.7273L23.2082 1.7836C21.4755 1.36353 19.7044 1.15385 17.8967 1.15385V3.15385ZM22.7542 3.73129C24.3488 4.08829 25.743 4.61886 26.9473 5.31362L27.9467 3.58124C26.544 2.77201 24.9554 2.17459 23.1911 1.7796L22.7542 3.73129ZM26.5234 4.06415L24.2298 9.5913L26.077 10.3579L28.3706 4.83071L26.5234 4.06415ZM25.6286 9.09467C24.3142 8.38492 23.0003 7.85233 21.6875 7.50403L21.1746 9.43716C22.3183 9.74058 23.486 10.2107 24.6783 10.8545L25.6286 9.09467ZM21.7058 7.50907C20.3977 7.13533 19.1145 6.9442 17.8591 6.9442V8.9442C18.9098 8.9442 20.0079 9.104 21.1563 9.43212L21.7058 7.50907ZM17.8591 6.9442C16.7717 6.9442 15.8165 7.06175 15.0388 7.34171L15.7162 9.22348C16.1919 9.05225 16.891 8.9442 17.8591 8.9442V6.9442ZM15.0727 7.33017C14.3411 7.56428 13.6825 7.9257 13.2376 8.49197L14.8102 9.72761C14.9168 9.59202 15.1606 9.40197 15.6823 9.23502L15.0727 7.33017ZM13.2376 8.49197C12.8218 9.02117 12.6103 9.64039 12.6103 10.313H14.6103C14.6103 10.0832 14.6746 9.90026 14.8102 9.72761L13.2376 8.49197ZM12.6103 10.313C12.6103 11.2605 13.0726 12.0211 13.8452 12.5362L14.9546 10.8721C14.6744 10.6853 14.6103 10.5185 14.6103 10.313H12.6103ZM13.8912 12.5651C14.5495 12.9541 15.36 13.2597 16.2941 13.4998L16.7921 11.5629C15.9715 11.3518 15.3532 11.1059 14.9086 10.8432L13.8912 12.5651ZM16.3262 13.5075C17.2314 13.7087 18.2115 13.9223 19.2663 14.1484L19.6854 12.1927C18.6347 11.9676 17.6596 11.7551 16.76 11.5552L16.3262 13.5075ZM19.271 14.1493C20.3109 14.367 21.339 14.6452 22.3556 14.984L22.9881 13.0867C21.899 12.7237 20.7965 12.4253 19.6807 12.1918L19.271 14.1493ZM22.3824 14.9926C23.375 15.2926 24.264 15.7046 25.0554 16.2246L26.1538 14.5532C25.1905 13.9202 24.1244 13.4298 22.9612 13.0781L22.3824 14.9926ZM25.0724 16.2356C25.8056 16.6964 26.3932 17.3129 26.8405 18.1009L28.5799 17.1137C27.9743 16.0468 27.1582 15.1844 26.1368 14.5423L25.0724 16.2356ZM26.8569 18.1288C27.2874 18.8332 27.5374 19.7795 27.5374 21.0289H29.5374C29.5374 19.5209 29.2359 18.1862 28.5635 17.0859L26.8569 18.1288ZM27.5374 21.0289C27.5374 22.3532 27.1613 23.576 26.3918 24.7193L28.051 25.836C29.0361 24.3724 29.5374 22.7626 29.5374 21.0289H27.5374ZM26.3893 24.7229C25.6634 25.8118 24.537 26.7306 22.9388 27.4486L23.7584 29.273C25.6194 28.4369 27.0749 27.3002 28.0534 25.8323L26.3893 24.7229ZM22.9338 27.4509C21.4 28.1501 19.3977 28.5264 16.8815 28.5264V30.5264C19.5791 30.5264 21.8882 30.1256 23.7634 29.2707L22.9338 27.4509ZM33.5179 27.4208L32.8503 28.1654L32.8575 28.1718L33.5179 27.4208ZM31.3371 4.07143V3.07143H30.3371V4.07143H31.3371ZM38.481 4.07143H39.481V3.07143H38.481V4.07143ZM39.0826 23.2097L38.3544 23.895L38.3648 23.906L38.3755 23.9168L39.0826 23.2097ZM42.805 23.1721L43.7478 22.8389L43.3069 21.5911L42.227 22.356L42.805 23.1721ZM44.5722 28.1728L45.1269 29.0049L45.7743 28.5732L45.515 27.8396L44.5722 28.1728ZM42.3538 29.0376L42.1577 28.057L42.1443 28.0597L42.131 28.0627L42.3538 29.0376ZM28.3667 14.7121H27.3667V15.7121H28.3667V14.7121ZM28.3667 9.37299V8.37299H27.3667V9.37299H28.3667ZM43.1434 9.37299H44.1434V8.37299H43.1434V9.37299ZM43.1434 14.7121V15.7121H44.1434V14.7121H43.1434ZM39.609 28.3384C37.1601 28.3384 35.3944 27.7393 34.1782 26.6698L32.8575 28.1718C34.549 29.6591 36.8441 30.3384 39.609 30.3384V28.3384ZM34.1854 26.6762C33.0077 25.6203 32.3371 23.9781 32.3371 21.5553H30.3371C30.3371 24.3463 31.1204 26.6144 32.8503 28.1654L34.1854 26.6762ZM32.3371 21.5553V4.07143H30.3371V21.5553H32.3371ZM31.3371 5.07143H38.481V3.07143H31.3371V5.07143ZM37.481 4.07143V21.4801H39.481V4.07143H37.481ZM37.481 21.4801C37.481 22.397 37.739 23.2411 38.3544 23.895L39.8108 22.5243C39.6241 22.326 39.481 22.017 39.481 21.4801H37.481ZM38.3755 23.9168C38.9846 24.5259 39.7628 24.8112 40.6242 24.8112V22.8112C40.2322 22.8112 39.9827 22.6955 39.7897 22.5025L38.3755 23.9168ZM40.6242 24.8112C41.6501 24.8112 42.5871 24.5519 43.383 23.9881L42.227 22.356C41.8197 22.6445 41.3028 22.8112 40.6242 22.8112V24.8112ZM41.8621 23.5052L43.6293 28.506L45.515 27.8396L43.7478 22.8389L41.8621 23.5052ZM44.0175 27.3408C43.547 27.6544 42.9364 27.9013 42.1577 28.057L42.5499 30.0182C43.5258 29.823 44.3941 29.4934 45.1269 29.0049L44.0175 27.3408ZM42.131 28.0627C41.3309 28.2456 40.4909 28.3384 39.609 28.3384V30.3384C40.6322 30.3384 41.6221 30.2306 42.5766 30.0125L42.131 28.0627ZM29.3667 14.7121V9.37299H27.3667V14.7121H29.3667ZM28.3667 10.373H43.1434V8.37299H28.3667V10.373ZM42.1434 9.37299V14.7121H44.1434V9.37299H42.1434ZM43.1434 13.7121H28.3667V15.7121H43.1434V13.7121ZM58.6444 29H57.6444V30H58.6444V29ZM58.6444 25.2024H59.6444V24.958L59.5316 24.7411L58.6444 25.2024ZM58.1556 24.2624H57.1556V24.5069L57.2684 24.7238L58.1556 24.2624ZM57.1028 14.6745L56.4234 15.4083L56.4375 15.4213L56.452 15.4338L57.1028 14.6745ZM50.8613 14.2233L51.1486 15.1812L51.1595 15.1779L51.1704 15.1744L50.8613 14.2233ZM48.3045 15.5017L47.4087 15.9462L47.9553 17.0479L48.9223 16.288L48.3045 15.5017ZM45.8981 10.6514L45.3519 9.81376L44.6072 10.2994L45.0023 11.0958L45.8981 10.6514ZM50.0341 8.92179L50.2766 9.89199L50.2871 9.88925L50.0341 8.92179ZM62.5548 10.5762L61.9084 11.3392L61.914 11.344L61.9198 11.3487L62.5548 10.5762ZM65.2995 29V30H66.2995V29H65.2995ZM48.4925 28.5112L48.9317 27.6128L48.4925 28.5112ZM45.8981 26.2552L45.0426 26.773L45.0476 26.7812L45.0526 26.7892L45.8981 26.2552ZM45.9733 19.8257L45.1551 19.2507L45.152 19.2553L45.9733 19.8257ZM48.9437 17.7201L49.2812 18.6614L49.289 18.6586L49.2968 18.6557L48.9437 17.7201ZM58.9076 16.9681H59.9076V15.9681H58.9076V16.9681ZM58.9076 20.6905V21.6905H59.9076V20.6905H58.9076ZM52.6285 21.2545L52.0088 20.4696L51.9984 20.4778L51.9883 20.4863L52.6285 21.2545ZM52.6661 24.2624L52.0464 25.0473L52.6661 24.2624ZM56.7268 24.2624L57.2414 25.12L57.2509 25.1141L56.7268 24.2624ZM58.1556 22.4577L59.093 22.1095L58.1601 19.5977L57.2193 22.1065L58.1556 22.4577ZM59.1332 25.0896L60.0992 25.3484L60.1817 25.0404L60.0706 24.7414L59.1332 25.0896ZM56.9148 28.2856L57.4605 29.1236L57.4651 29.1206L56.9148 28.2856ZM59.6444 29V25.2024H57.6444V29H59.6444ZM59.5316 24.7411L59.0428 23.8011L57.2684 24.7238L57.7572 25.6638L59.5316 24.7411ZM59.1556 24.2624V17.2689H57.1556V24.2624H59.1556ZM59.1556 17.2689C59.1556 15.9192 58.7254 14.7482 57.7536 13.9153L56.452 15.4338C56.884 15.804 57.1556 16.3626 57.1556 17.2689H59.1556ZM57.7822 13.9408C56.8341 13.0628 55.4376 12.7345 53.8317 12.7345V14.7345C55.2337 14.7345 56.018 15.0329 56.4234 15.4083L57.7822 13.9408ZM53.8317 12.7345C52.7412 12.7345 51.6469 12.9165 50.5522 13.2723L51.1704 15.1744C52.081 14.8784 52.9669 14.7345 53.8317 14.7345V12.7345ZM50.5739 13.2655C49.4717 13.5962 48.5024 14.0745 47.6867 14.7154L48.9223 16.288C49.5103 15.8261 50.2455 15.4521 51.1486 15.1812L50.5739 13.2655ZM49.2003 15.0573L46.7939 10.2069L45.0023 11.0958L47.4087 15.9462L49.2003 15.0573ZM46.4444 11.489C47.4877 10.8086 48.7592 10.2713 50.2766 9.89193L49.7916 7.95165C48.1005 8.37442 46.6147 8.99018 45.3519 9.81376L46.4444 11.489ZM50.2871 9.88925C51.8379 9.48365 53.3697 9.2826 54.8844 9.2826V7.2826C53.1907 7.2826 51.4889 7.50767 49.7811 7.95433L50.2871 9.88925ZM54.8844 9.2826C58.0501 9.2826 60.3447 10.0144 61.9084 11.3392L63.2012 9.81319C61.1553 8.07989 58.3364 7.2826 54.8844 7.2826V9.2826ZM61.9198 11.3487C63.442 12.5999 64.2995 14.6325 64.2995 17.6825H66.2995C66.2995 14.2654 65.3272 11.5604 63.1897 9.80363L61.9198 11.3487ZM64.2995 17.6825V29H66.2995V17.6825H64.2995ZM65.2995 28H58.6444V30H65.2995V28ZM52.6285 28.3384C51.1077 28.3384 49.8885 28.0806 48.9317 27.6128L48.0533 29.4096C49.3525 30.0448 50.8906 30.3384 52.6285 30.3384V28.3384ZM48.9317 27.6128C47.9507 27.1332 47.2351 26.4995 46.7436 25.7212L45.0526 26.7892C45.7643 27.916 46.7784 28.7863 48.0533 29.4096L48.9317 27.6128ZM46.7536 25.7374C46.2772 24.9503 46.0333 24.0659 46.0333 23.0593H44.0333C44.0333 24.4089 44.366 25.6551 45.0426 26.773L46.7536 25.7374ZM46.0333 23.0593C46.0333 21.9801 46.3002 21.1081 46.7947 20.3961L45.152 19.2553C44.3931 20.348 44.0333 21.6318 44.0333 23.0593H46.0333ZM46.7915 20.4006C47.2983 19.6794 48.0988 19.0853 49.2812 18.6614L48.6062 16.7788C47.1315 17.3074 45.9518 18.1171 45.1551 19.2507L46.7915 20.4006ZM49.2968 18.6557C50.4719 18.2123 52.0572 17.9681 54.0949 17.9681V15.9681C51.9214 15.9681 50.0726 16.2253 48.5906 16.7845L49.2968 18.6557ZM54.0949 17.9681H58.9076V15.9681H54.0949V17.9681ZM57.9076 16.9681V20.6905H59.9076V16.9681H57.9076ZM58.9076 19.6905H55.0724V21.6905H58.9076V19.6905ZM55.0724 19.6905C53.8691 19.6905 52.7619 19.8751 52.0088 20.4696L53.2481 22.0394C53.4476 21.8819 53.9696 21.6905 55.0724 21.6905V19.6905ZM51.9883 20.4863C51.2922 21.0663 50.9517 21.8577 50.9517 22.7585H52.9517C52.9517 22.4059 53.0623 22.1946 53.2687 22.0227L51.9883 20.4863ZM50.9517 22.7585C50.9517 23.6795 51.3209 24.4746 52.0464 25.0473L53.2857 23.4776C53.0587 23.2983 52.9517 23.0907 52.9517 22.7585H50.9517ZM52.0464 25.0473C52.7537 25.6057 53.6502 25.8264 54.6213 25.8264V23.8264C53.9379 23.8264 53.531 23.6712 53.2857 23.4776L52.0464 25.0473ZM54.6213 25.8264C55.5676 25.8264 56.4493 25.5951 57.2413 25.1199L56.2123 23.405C55.751 23.6817 55.229 23.8264 54.6213 23.8264V25.8264ZM57.2509 25.1141C58.1144 24.5827 58.723 23.7927 59.0919 22.8088L57.2193 22.1065C56.9867 22.7269 56.6427 23.14 56.2027 23.4108L57.2509 25.1141ZM57.2182 22.8058L58.1958 25.4378L60.0706 24.7414L59.093 22.1095L57.2182 22.8058ZM58.1673 24.8309C57.8478 26.0237 57.242 26.8723 56.3645 27.4506L57.4651 29.1206C58.7935 28.245 59.6667 26.963 60.0992 25.3484L58.1673 24.8309ZM56.3692 27.4476C55.5048 28.0104 54.2862 28.3384 52.6285 28.3384V30.3384C54.5302 30.3384 56.1691 29.9645 57.4605 29.1236L56.3692 27.4476ZM68.6809 29H67.6809V30H68.6809V29ZM68.6809 8.62099V7.62099H67.6809V8.62099H68.6809ZM75.4864 8.62099H76.4864V7.62099H75.4864V8.62099ZM75.4864 14.5617L74.6289 15.0762L76.4864 18.1721V14.5617H75.4864ZM74.4712 12.8698L73.5406 12.5036L73.3603 12.9619L73.6137 13.3842L74.4712 12.8698ZM77.404 9.44818L77.8897 10.3224L77.9019 10.3154L77.404 9.44818ZM82.3295 8.2826H83.3295V7.2826H82.3295V8.2826ZM82.3295 14.7121L82.1775 15.7005L83.3295 15.8777V14.7121H82.3295ZM81.4648 14.6369L81.3543 15.6308L81.4094 15.6369H81.4648V14.6369ZM77.1784 15.8025L77.8309 16.5603L77.8369 16.5552L77.8428 16.5499L77.1784 15.8025ZM75.8248 29V30H76.8248V29H75.8248ZM69.6809 29V8.62099H67.6809V29H69.6809ZM68.6809 9.62099H75.4864V7.62099H68.6809V9.62099ZM74.4864 8.62099V14.5617H76.4864V8.62099H74.4864ZM76.3439 14.0472L75.3287 12.3553L73.6137 13.3842L74.6289 15.0762L76.3439 14.0472ZM75.4018 13.2359C75.9241 11.9084 76.7518 10.9545 77.8896 10.3223L76.9184 8.57403C75.349 9.44586 74.2216 10.773 73.5406 12.5036L75.4018 13.2359ZM77.9019 10.3154C79.072 9.64371 80.5332 9.2826 82.3295 9.2826V7.2826C80.2657 7.2826 78.4432 7.69855 76.9061 8.58093L77.9019 10.3154ZM81.3295 8.2826V14.7121H83.3295V8.2826H81.3295ZM82.4816 13.7238C82.1201 13.6681 81.7793 13.6369 81.4648 13.6369V15.6369C81.6515 15.6369 81.8872 15.6559 82.1775 15.7005L82.4816 13.7238ZM81.5752 13.6431C81.3061 13.6132 81.0179 13.5993 80.7128 13.5993V15.5993C80.9591 15.5993 81.1722 15.6106 81.3543 15.6308L81.5752 13.6431ZM80.7128 13.5993C79.0665 13.5993 77.6353 14.0585 76.514 15.0551L77.8428 16.5499C78.5263 15.9423 79.4513 15.5993 80.7128 15.5993V13.5993ZM76.5259 15.0448C75.3122 16.0899 74.8248 17.7128 74.8248 19.6377H76.8248C76.8248 18.0032 77.2398 17.0693 77.8309 16.5603L76.5259 15.0448ZM74.8248 19.6377V29H76.8248V19.6377H74.8248ZM75.8248 28H68.6809V30H75.8248V28ZM84.4513 29H83.4513V30H84.4513V29ZM84.4513 2.68025V1.68025H83.4513V2.68025H84.4513ZM105.657 4.59783L105.057 5.39787L105.065 5.40348L105.657 4.59783ZM107.124 13.1329L106.307 12.5555L106.305 12.5595L107.124 13.1329ZM104.116 15.5393L104.527 16.4509L104.535 16.4473L104.116 15.5393ZM99.5287 16.4041L98.6057 16.0195L98.0287 17.4041H99.5287V16.4041ZM100.281 14.5993V13.5993H99.6141L99.3577 14.2147L100.281 14.5993ZM105.131 15.4641L104.745 16.3867L104.752 16.3897L104.76 16.3926L105.131 15.4641ZM108.327 17.9081L107.507 18.4803L107.515 18.4912L107.522 18.502L108.327 17.9081ZM106.71 27.12L107.275 27.9451L107.278 27.9434L106.71 27.12ZM91.8208 23.6233H90.8208V24.6233H91.8208V23.6233ZM100.958 22.9841L101.505 23.8211L101.512 23.8161L100.958 22.9841ZM100.958 18.9609L100.388 19.7831L100.406 19.7955L100.425 19.8071L100.958 18.9609ZM91.2944 18.2841H90.2944V19.2841H91.2944V18.2841ZM91.2944 13.1329V12.1329H90.2944V13.1329H91.2944ZM99.7543 12.4938L100.317 13.3207H100.317L99.7543 12.4938ZM99.7543 8.69619L99.192 9.52312L99.2035 9.53095L99.2153 9.53846L99.7543 8.69619ZM91.8208 8.057V7.057H90.8208V8.057H91.8208ZM85.4513 29V2.68025H83.4513V29H85.4513ZM84.4513 3.68025H97.912V1.68025H84.4513V3.68025ZM97.912 3.68025C101.279 3.68025 103.604 4.30796 105.057 5.39783L106.257 3.79783C104.302 2.33092 101.463 1.68025 97.912 1.68025V3.68025ZM105.065 5.40348C106.522 6.47488 107.214 7.83447 107.214 9.56098H109.214C109.214 7.1766 108.202 5.22742 106.25 3.79218L105.065 5.40348ZM107.214 9.56098C107.214 10.7242 106.906 11.7096 106.307 12.5555L107.94 13.7104C108.796 12.5009 109.214 11.105 109.214 9.56098H107.214ZM106.305 12.5595C105.721 13.3939 104.868 14.091 103.697 14.6314L104.535 16.4473C105.971 15.7845 107.123 14.8774 107.943 13.7064L106.305 12.5595ZM103.705 14.6277C102.585 15.1325 101.204 15.4041 99.5287 15.4041V17.4041C101.413 17.4041 103.09 17.0992 104.527 16.4509L103.705 14.6277ZM100.452 16.7887L101.204 14.984L99.3577 14.2147L98.6057 16.0195L100.452 16.7887ZM100.281 15.5993C102.034 15.5993 103.514 15.872 104.745 16.3867L105.517 14.5415C103.99 13.9032 102.237 13.5993 100.281 13.5993V15.5993ZM104.76 16.3926C105.981 16.8813 106.881 17.5826 107.507 18.4803L109.147 17.3359C108.27 16.0779 107.038 15.1499 105.502 14.5357L104.76 16.3926ZM107.522 18.502C108.152 19.355 108.493 20.4283 108.493 21.7809H110.493C110.493 20.0754 110.056 18.5668 109.132 17.3143L107.522 18.502ZM108.493 21.7809C108.493 23.738 107.723 25.2077 106.143 26.2966L107.278 27.9434C109.408 26.4756 110.493 24.3859 110.493 21.7809H108.493ZM106.145 26.295C104.554 27.385 102.107 28 98.6639 28V30C102.29 30 105.207 29.3617 107.275 27.945L106.145 26.295ZM98.6639 28H84.4513V30H98.6639V28ZM91.8208 24.6233H98.0624V22.6233H91.8208V24.6233ZM98.0624 24.6233C99.4225 24.6233 100.617 24.4018 101.505 23.821L100.41 22.1471C99.9951 22.4186 99.259 22.6233 98.0624 22.6233V24.6233ZM101.512 23.8161C102.501 23.1568 102.973 22.1474 102.973 20.9537H100.973C100.973 21.5648 100.767 21.9089 100.403 22.152L101.512 23.8161ZM102.973 20.9537C102.973 19.7599 102.499 18.7501 101.49 18.1147L100.425 19.8071C100.769 20.024 100.973 20.3427 100.973 20.9537H102.973ZM101.527 18.1387C100.634 17.5204 99.4301 17.2841 98.0624 17.2841V19.2841C99.2514 19.2841 99.9779 19.499 100.388 19.7831L101.527 18.1387ZM98.0624 17.2841H91.2944V19.2841H98.0624V17.2841ZM92.2944 18.2841V13.1329H90.2944V18.2841H92.2944ZM91.2944 14.1329H96.9344V12.1329H91.2944V14.1329ZM96.9344 14.1329C98.2698 14.1329 99.4476 13.9116 100.317 13.3207L99.192 11.6668C98.8077 11.9282 98.1056 12.1329 96.9344 12.1329V14.1329ZM100.317 13.3207C101.255 12.6828 101.694 11.7114 101.694 10.5762H99.6943C99.6943 11.1455 99.5073 11.4524 99.192 11.6668L100.317 13.3207ZM101.694 10.5762C101.694 9.44121 101.253 8.46815 100.293 7.85392L99.2153 9.53846C99.5089 9.72636 99.6943 10.0066 99.6943 10.5762H101.694ZM100.317 7.86927C99.4476 7.27834 98.2698 7.057 96.9344 7.057V9.057C98.1056 9.057 98.8077 9.26178 99.192 9.52312L100.317 7.86927ZM96.9344 7.057H91.8208V9.057H96.9344V7.057ZM90.8208 8.057V23.6233H92.8208V8.057H90.8208ZM115.981 28.3608L115.533 29.2553L115.54 29.2586L115.981 28.3608ZM112.897 25.3152L112.009 25.7751L112.014 25.7846L112.02 25.7941L112.897 25.3152ZM111.807 8.62099V7.62099H110.807V8.62099H111.807ZM118.951 8.62099H119.951V7.62099H118.951V8.62099ZM119.816 22.2321L119.055 22.8805L119.061 22.8886L119.068 22.8964L119.816 22.2321ZM125.644 21.2169L126.538 21.6641L126.544 21.6516L125.644 21.2169ZM126.17 8.62099V7.62099H125.17V8.62099H126.17ZM133.314 8.62099H134.314V7.62099H133.314V8.62099ZM133.314 29V30H134.314V29H133.314ZM126.509 29H125.509V30H126.509V29ZM126.509 23.2473L127.284 22.616L125.509 20.4346V23.2473H126.509ZM127.825 24.864L128.731 25.2869L128.996 24.7189L128.6 24.2328L127.825 24.864ZM124.779 28.248L125.259 29.1253L125.265 29.1218L125.272 29.1183L124.779 28.248ZM120.455 28.3384C118.935 28.3384 117.597 28.0399 116.421 27.463L115.54 29.2586C117.021 29.9851 118.666 30.3384 120.455 30.3384V28.3384ZM116.428 27.4664C115.321 26.9131 114.438 26.0504 113.775 24.8364L112.02 25.7941C112.861 27.3373 114.033 28.505 115.533 29.2552L116.428 27.4664ZM113.785 24.8554C113.153 23.6345 112.807 22.0374 112.807 20.0137H110.807C110.807 22.2512 111.188 24.1886 112.009 25.7751L113.785 24.8554ZM112.807 20.0137V8.62099H110.807V20.0137H112.807ZM111.807 9.62099H118.951V7.62099H111.807V9.62099ZM117.951 8.62099V18.8481H119.951V8.62099H117.951ZM117.951 18.8481C117.951 20.4992 118.243 21.9275 119.055 22.8805L120.577 21.5836C120.236 21.183 119.951 20.3554 119.951 18.8481H117.951ZM119.068 22.8964C119.896 23.8275 121.031 24.2473 122.335 24.2473V22.2473C121.483 22.2473 120.939 21.9903 120.563 21.5677L119.068 22.8964ZM122.335 24.2473C123.199 24.2473 124.009 24.0448 124.745 23.629L123.761 21.8879C123.343 22.1238 122.875 22.2473 122.335 22.2473V24.2473ZM124.745 23.629C125.524 23.1883 126.115 22.5104 126.538 21.6641L124.749 20.7697C124.471 21.3271 124.134 21.6769 123.761 21.8879L124.745 23.629ZM126.544 21.6516C126.981 20.7463 127.17 19.6569 127.17 18.4345H125.17C125.17 19.4681 125.008 20.2336 124.743 20.7821L126.544 21.6516ZM127.17 18.4345V8.62099H125.17V18.4345H127.17ZM126.17 9.62099H133.314V7.62099H126.17V9.62099ZM132.314 8.62099V29H134.314V8.62099H132.314ZM133.314 28H126.509V30H133.314V28ZM127.509 29V23.2473H125.509V29H127.509ZM125.733 23.8785L127.049 25.4953L128.6 24.2328L127.284 22.616L125.733 23.8785ZM126.918 24.4412C126.296 25.7739 125.418 26.7373 124.286 27.3778L125.272 29.1183C126.797 28.2548 127.949 26.9621 128.731 25.2869L126.918 24.4412ZM124.299 27.3707C123.122 28.015 121.846 28.3384 120.455 28.3384V30.3384C122.172 30.3384 123.779 29.9349 125.259 29.1253L124.299 27.3707ZM141.149 27.9848L140.692 28.8741L140.697 28.8767L141.149 27.9848ZM137.013 24.2624L136.165 24.7925L136.169 24.7985L137.013 24.2624ZM137.013 13.3209L136.169 12.7849L137.013 13.3209ZM141.149 9.63618L141.596 10.5306L141.601 10.5281L141.149 9.63618ZM153.181 9.74898L153.684 8.88474L153.181 9.74898ZM156.753 13.8849L157.208 14.7757L158.017 14.363L157.683 13.5181L156.753 13.8849ZM151.226 16.7049L150.331 17.1521L150.782 18.0539L151.68 17.5957L151.226 16.7049ZM149.459 14.6369L148.918 15.4781L148.929 15.4851L148.94 15.4917L149.459 14.6369ZM144.909 14.5241L144.424 13.65L144.909 14.5241ZM143.292 16.1785L142.417 15.6954L142.411 15.7063L143.292 16.1785ZM143.292 21.4425L142.404 21.9019L142.41 21.9138L142.417 21.9255L143.292 21.4425ZM149.459 23.0217L149.978 23.8764L149.989 23.8698L149.999 23.8628L149.459 23.0217ZM151.226 20.9161L151.68 20.0253L150.782 19.5671L150.331 20.4689L151.226 20.9161ZM156.753 23.736L157.683 24.1029L158.017 23.258L157.208 22.8453L156.753 23.736ZM153.181 27.872L153.684 28.7363L153.181 27.872ZM147.203 28.3384C145.083 28.3384 143.224 27.9154 141.601 27.0929L140.697 28.8767C142.634 29.859 144.81 30.3384 147.203 30.3384V28.3384ZM141.607 27.0955C140.001 26.2698 138.76 25.1472 137.857 23.7264L136.169 24.7985C137.272 26.536 138.788 27.8951 140.692 28.8741L141.607 27.0955ZM137.861 23.7324C136.966 22.3008 136.509 20.6578 136.509 18.7729H134.509C134.509 20.9989 135.055 23.0156 136.165 24.7924L137.861 23.7324ZM136.509 18.7729C136.509 16.8878 136.966 15.2602 137.857 13.857L136.169 12.7849C135.055 14.54 134.509 16.5471 134.509 18.7729H136.509ZM137.857 13.857C138.758 12.4387 139.996 11.3309 141.596 10.5306L140.702 8.74175C138.793 9.69616 137.274 11.0448 136.169 12.7849L137.857 13.857ZM141.601 10.5281C143.224 9.70556 145.083 9.2826 147.203 9.2826V7.2826C144.81 7.2826 142.634 7.76202 140.697 8.74428L141.601 10.5281ZM147.203 9.2826C149.365 9.2826 151.178 9.73987 152.678 10.6132L153.684 8.88474C151.826 7.80291 149.652 7.2826 147.203 7.2826V9.2826ZM152.678 10.6132C154.167 11.4797 155.205 12.6847 155.823 14.2518L157.683 13.5181C156.898 11.5257 155.555 9.97346 153.684 8.88474L152.678 10.6132ZM156.299 12.9942L150.771 15.8142L151.68 17.5957L157.208 14.7757L156.299 12.9942ZM152.12 16.2577C151.584 15.1859 150.882 14.3312 149.978 13.7821L148.94 15.4917C149.439 15.795 149.915 16.3189 150.331 17.1521L152.12 16.2577ZM149.999 13.7958C149.138 13.2418 148.186 12.9601 147.165 12.9601V14.9601C147.799 14.9601 148.376 15.1297 148.918 15.4781L149.999 13.7958ZM147.165 12.9601C146.18 12.9601 145.259 13.1858 144.424 13.65L145.395 15.3983C145.913 15.1105 146.496 14.9601 147.165 14.9601V12.9601ZM144.424 13.65C143.571 14.1238 142.902 14.8165 142.417 15.6954L144.168 16.6616C144.485 16.0867 144.894 15.6765 145.395 15.3983L144.424 13.65ZM142.411 15.7063C141.938 16.5895 141.728 17.6269 141.728 18.7729H143.728C143.728 17.8634 143.895 17.1712 144.174 16.6507L142.411 15.7063ZM141.728 18.7729C141.728 19.9411 141.937 20.9982 142.404 21.9019L144.181 20.983C143.896 20.4329 143.728 19.7102 143.728 18.7729H141.728ZM142.417 21.9255C142.902 22.8045 143.571 23.4972 144.424 23.971L145.395 22.2227C144.894 21.9445 144.485 21.5343 144.168 20.9594L142.417 21.9255ZM144.424 23.971C145.259 24.4352 146.18 24.6609 147.165 24.6609V22.6609C146.496 22.6609 145.913 22.5105 145.395 22.2227L144.424 23.971ZM147.165 24.6609C148.174 24.6609 149.118 24.3983 149.978 23.8764L148.94 22.1669C148.396 22.4973 147.811 22.6609 147.165 22.6609V24.6609ZM149.999 23.8628C150.889 23.2911 151.586 22.4328 152.12 21.3633L150.331 20.4689C149.914 21.3044 149.432 21.8498 148.918 22.1805L149.999 23.8628ZM150.771 21.8068L156.299 24.6268L157.208 22.8453L151.68 20.0253L150.771 21.8068ZM155.823 23.3692C155.205 24.9363 154.167 26.1413 152.678 27.0078L153.684 28.7363C155.555 27.6475 156.898 26.0953 157.683 24.1029L155.823 23.3692ZM152.678 27.0078C151.178 27.8811 149.365 28.3384 147.203 28.3384V30.3384C149.652 30.3384 151.826 29.8181 153.684 28.7363L152.678 27.0078ZM164.182 25.24L163.182 25.218L163.127 27.742L164.896 25.9407L164.182 25.24ZM164.37 16.7049L163.673 15.9881L163.379 16.2736L163.37 16.6829L164.37 16.7049ZM172.68 8.62099V7.62099H172.274L171.982 7.90422L172.68 8.62099ZM181.14 8.62099L181.858 9.31665L183.5 7.62099H181.14V8.62099ZM171.928 18.1337L172.554 18.913L172.603 18.874L172.646 18.8294L171.928 18.1337ZM168.281 21.0665L167.654 20.2872L167.608 20.324L167.567 20.3658L168.281 21.0665ZM158.241 29H157.241V30H158.241V29ZM158.241 1.10106V0.101063H157.241V1.10106H158.241ZM165.385 1.10106H166.385V0.101063H165.385V1.10106ZM165.385 29V30H166.385V29H165.385ZM173.206 29L172.425 29.6238L172.725 30H173.206V29ZM166.965 21.1793L166.187 20.5507L165.682 21.1753L166.183 21.8031L166.965 21.1793ZM171.401 15.6897L172.188 15.0721L171.413 14.0849L170.624 15.0611L171.401 15.6897ZM181.854 29V30H183.911L182.641 28.3824L181.854 29ZM165.182 25.2621L165.37 16.7269L163.37 16.6829L163.182 25.218L165.182 25.2621ZM165.068 17.4217L173.377 9.33776L171.982 7.90422L163.673 15.9881L165.068 17.4217ZM172.68 9.62099H181.14V7.62099H172.68V9.62099ZM180.421 7.92533L171.209 17.438L172.646 18.8294L181.858 9.31665L180.421 7.92533ZM171.301 17.3544L167.654 20.2872L168.907 21.8458L172.554 18.913L171.301 17.3544ZM167.567 20.3658L163.469 24.5394L164.896 25.9407L168.994 21.7671L167.567 20.3658ZM159.241 29V1.10106H157.241V29H159.241ZM158.241 2.10106H165.385V0.101063H158.241V2.10106ZM164.385 1.10106V29H166.385V1.10106H164.385ZM165.385 28H158.241V30H165.385V28ZM173.988 28.3762L167.746 20.5555L166.183 21.8031L172.425 29.6238L173.988 28.3762ZM167.742 21.8079L172.179 16.3183L170.624 15.0611L166.187 20.5507L167.742 21.8079ZM170.615 16.3074L181.068 29.6176L182.641 28.3824L172.188 15.0721L170.615 16.3074ZM181.854 28H173.206V30H181.854V28ZM184.523 28.7368L184.284 29.7078L184.288 29.7087L184.523 28.7368ZM180.575 27.2328L179.66 26.8313L179.306 27.6374L180.061 28.0903L180.575 27.2328ZM182.719 22.3449L183.236 21.4894L182.261 20.8988L181.803 21.9433L182.719 22.3449ZM186.065 23.736L185.8 24.7004L185.809 24.7028L185.818 24.7051L186.065 23.736ZM192.306 23.8488L191.841 22.9639L191.831 22.9692L191.821 22.9747L192.306 23.8488ZM192.344 21.9689L191.918 22.8737L191.949 22.8884L191.982 22.9009L192.344 21.9689ZM190.614 21.5177L190.473 22.5076L190.478 22.5083L190.614 21.5177ZM188.283 21.1793L188.138 22.1686L188.283 21.1793ZM185.689 20.6905L185.433 21.6572L185.449 21.6615L185.466 21.6653L185.689 20.6905ZM183.32 19.7129L182.779 20.5541L182.797 20.5652L182.814 20.5756L183.32 19.7129ZM181.628 17.9081L182.498 17.4151L181.628 17.9081ZM182.117 11.5914L181.319 10.9883L181.317 10.9914L182.117 11.5914ZM185.501 9.18499L185.864 10.1167L185.871 10.114L185.878 10.1113L185.501 9.18499ZM195.239 8.73379L195.037 9.71305L195.046 9.71505L195.056 9.71685L195.239 8.73379ZM198.962 10.0122L199.876 10.4163L200.24 9.59363L199.46 9.14527L198.962 10.0122ZM196.818 14.8625L196.32 15.7294L197.284 16.2836L197.733 15.2667L196.818 14.8625ZM193.81 13.6969L193.591 14.6726L193.603 14.6752L193.614 14.6775L193.81 13.6969ZM188.396 13.7721L187.914 12.8959L187.905 12.9012L187.895 12.9067L188.396 13.7721ZM188.321 15.7273L187.853 16.6111L187.874 16.6221L187.895 16.6321L188.321 15.7273ZM190.013 16.2161L189.837 17.2005L189.857 17.204L189.876 17.2067L190.013 16.2161ZM192.382 16.5545L192.236 17.5439L192.25 17.546L192.265 17.5477L192.382 16.5545ZM194.938 17.0433L194.683 18.01L194.689 18.0118L194.938 17.0433ZM197.307 18.0585L196.766 18.8997L196.784 18.9108L196.801 18.9212L197.307 18.0585ZM199.037 19.8257L198.167 20.3187L198.17 20.3251L198.174 20.3314L199.037 19.8257ZM198.51 26.0296L197.72 25.4171L197.715 25.4233L197.71 25.4296L198.51 26.0296ZM195.126 28.436L194.755 27.5075L194.75 27.5097L195.126 28.436ZM189.599 28.3384C187.948 28.3384 186.335 28.147 184.759 27.765L184.288 29.7087C186.02 30.1287 187.792 30.3384 189.599 30.3384V28.3384ZM184.762 27.7658C183.192 27.3792 181.979 26.9085 181.09 26.3753L180.061 28.0903C181.177 28.7603 182.596 29.2923 184.284 29.7078L184.762 27.7658ZM181.491 27.6344L183.634 22.7464L181.803 21.9433L179.66 26.8313L181.491 27.6344ZM182.201 23.2004C183.246 23.8327 184.449 24.3295 185.8 24.7004L186.33 22.7717C185.124 22.4407 184.097 22.01 183.236 21.4894L182.201 23.2004ZM185.818 24.7051C187.171 25.05 188.507 25.2248 189.825 25.2248V23.2248C188.686 23.2248 187.516 23.0738 186.312 22.767L185.818 24.7051ZM189.825 25.2248C190.457 25.2248 191.018 25.1922 191.497 25.1196C191.965 25.0487 192.418 24.931 192.792 24.723L191.821 22.9747C191.744 23.0174 191.557 23.0876 191.198 23.1421C190.85 23.1948 190.396 23.2248 189.825 23.2248V25.2248ZM192.772 24.7338C193.475 24.3639 194.021 23.7337 194.021 22.8337H192.021C192.021 22.8458 192.019 22.8461 192.021 22.8394C192.024 22.8324 192.026 22.8291 192.024 22.8316C192.02 22.8382 191.979 22.891 191.841 22.9639L192.772 24.7338ZM194.021 22.8337C194.021 22.4324 193.903 22.0375 193.639 21.7004C193.385 21.3761 193.047 21.1693 192.706 21.0369L191.982 22.9009C192.092 22.9439 192.092 22.969 192.064 22.933C192.05 22.9144 192.036 22.8904 192.028 22.865C192.02 22.8408 192.021 22.8279 192.021 22.8337H194.021ZM192.77 21.064C192.216 20.8034 191.529 20.6343 190.751 20.5271L190.478 22.5083C191.154 22.6015 191.62 22.7332 191.918 22.8737L192.77 21.064ZM190.756 20.5277C190.056 20.4277 189.28 20.3151 188.429 20.1899L188.138 22.1686C188.991 22.2941 189.77 22.4071 190.473 22.5076L190.756 20.5277ZM188.429 20.1899C187.604 20.0686 186.765 19.9106 185.912 19.7156L185.466 21.6653C186.368 21.8715 187.258 22.0393 188.138 22.1686L188.429 20.1899ZM185.945 19.7238C185.176 19.5203 184.471 19.2284 183.826 18.8502L182.814 20.5756C183.623 21.0496 184.497 21.4095 185.433 21.6572L185.945 19.7238ZM183.861 18.8717C183.3 18.5114 182.847 18.0313 182.498 17.4151L180.758 18.4011C181.261 19.2889 181.936 20.012 182.779 20.5541L183.861 18.8717ZM182.498 17.4151C182.181 16.8554 181.989 16.0865 181.989 15.0505H179.989C179.989 16.3207 180.223 17.4568 180.758 18.4011L182.498 17.4151ZM181.989 15.0505C181.989 13.9542 182.3 13.0136 182.917 12.1914L181.317 10.9914C180.43 12.1744 179.989 13.54 179.989 15.0505H181.989ZM182.915 12.1945C183.557 11.3452 184.518 10.6416 185.864 10.1167L185.138 8.25328C183.526 8.88146 182.231 9.78209 181.319 10.9883L182.915 12.1945ZM185.878 10.1113C187.204 9.57168 188.873 9.2826 190.915 9.2826V7.2826C188.696 7.2826 186.755 7.59511 185.124 8.25869L185.878 10.1113ZM190.915 9.2826C192.273 9.2826 193.647 9.42551 195.037 9.71305L195.442 7.75453C193.924 7.44048 192.415 7.2826 190.915 7.2826V9.2826ZM195.056 9.71685C196.456 9.97779 197.583 10.3728 198.463 10.8791L199.46 9.14527C198.335 8.4985 196.981 8.04125 195.423 7.75073L195.056 9.71685ZM198.047 9.60802L195.904 14.4584L197.733 15.2667L199.876 10.4163L198.047 9.60802ZM197.317 13.9956C196.232 13.3721 195.128 12.9407 194.007 12.7164L193.614 14.6775C194.498 14.8542 195.399 15.1999 196.32 15.7294L197.317 13.9956ZM194.03 12.7213C192.965 12.4817 191.938 12.3585 190.953 12.3585V14.3585C191.772 14.3585 192.651 14.461 193.591 14.6726L194.03 12.7213ZM190.953 12.3585C189.729 12.3585 188.653 12.4894 187.914 12.8959L188.878 14.6484C189.141 14.5035 189.771 14.3585 190.953 14.3585V12.3585ZM187.895 12.9067C187.239 13.2863 186.682 13.9016 186.682 14.7873H188.682C188.682 14.7869 188.682 14.7888 188.681 14.7925C188.681 14.7963 188.68 14.8006 188.678 14.8048C188.675 14.8144 188.673 14.8158 188.678 14.8082C188.691 14.7898 188.745 14.7257 188.897 14.6376L187.895 12.9067ZM186.682 14.7873C186.682 15.6408 187.179 16.2542 187.853 16.6111L188.789 14.8435C188.682 14.7868 188.662 14.7509 188.668 14.7608C188.672 14.7659 188.677 14.7752 188.68 14.7859C188.683 14.7961 188.682 14.7981 188.682 14.7873H186.682ZM187.895 16.6321C188.43 16.884 189.088 17.0668 189.837 17.2005L190.189 15.2317C189.534 15.1148 189.064 14.9717 188.747 14.8225L187.895 16.6321ZM189.876 17.2067C190.6 17.3065 191.386 17.4189 192.236 17.5439L192.527 15.5652C191.672 15.4395 190.88 15.3262 190.15 15.2255L189.876 17.2067ZM192.265 17.5477C193.069 17.6423 193.875 17.7962 194.683 18.01L195.194 16.0766C194.298 15.8393 193.399 15.6673 192.498 15.5614L192.265 17.5477ZM194.689 18.0118C195.472 18.2131 196.162 18.511 196.766 18.8997L197.848 17.2173C197.049 16.7037 196.159 16.3247 195.187 16.0748L194.689 18.0118ZM196.801 18.9212C197.372 19.2559 197.825 19.7157 198.167 20.3187L199.907 19.3327C199.396 18.4317 198.696 17.7133 197.813 17.1958L196.801 18.9212ZM198.174 20.3314C198.483 20.8586 198.676 21.6076 198.676 22.6457H200.676C200.676 21.3777 200.443 20.2466 199.899 19.32L198.174 20.3314ZM198.676 22.6457C198.676 23.6743 198.363 24.5874 197.72 25.4171L199.301 26.6422C200.212 25.4665 200.676 24.1237 200.676 22.6457H198.676ZM197.71 25.4296C197.096 26.2485 196.138 26.9545 194.755 27.5075L195.498 29.3645C197.123 28.7143 198.421 27.8161 199.31 26.6296L197.71 25.4296ZM194.75 27.5097C193.427 28.0479 191.722 28.3384 189.599 28.3384V30.3384C191.888 30.3384 193.868 30.0273 195.503 29.3623L194.75 27.5097Z" fill="black" fill-opacity="0.2" mask="url(#path-1-outside-1_8_29)"/>
</g>
<defs>
<filter id="filter0_dd_8_29" x="0.536072" y="0.101074" width="204.14" height="38.4253" filterUnits="userSpaceOnUse" color-interpolation-filters="sRGB">
<feFlood flood-opacity="0" result="BackgroundImageFix"/>
<feColorMatrix in="SourceAlpha" type="matrix" values="0 0 0 0 0 0 0 0 0 0 0 0 0 0 0 0 0 0 127 0" result="hardAlpha"/>
<feOffset dy="4"/>
<feGaussianBlur stdDeviation="2"/>
<feComposite in2="hardAlpha" operator="out"/>
<feColorMatrix type="matrix" values="0 0 0 0 0 0 0 0 0 0 0 0 0 0 0 0 0 0 0.25 0"/>
<feBlend mode="normal" in2="BackgroundImageFix" result="effect1_dropShadow_8_29"/>
<feColorMatrix in="SourceAlpha" type="matrix" values="0 0 0 0 0 0 0 0 0 0 0 0 0 0 0 0 0 0 127 0" result="hardAlpha"/>
<feOffset dy="4"/>
<feGaussianBlur stdDeviation="2"/>
<feComposite in2="hardAlpha" operator="out"/>
<feColorMatrix type="matrix" values="0 0 0 0 0 0 0 0 0 0 0 0 0 0 0 0 0 0 0.25 0"/>
<feBlend mode="normal" in2="effect1_dropShadow_8_29" result="effect2_dropShadow_8_29"/>
<feBlend mode="normal" in="SourceGraphic" in2="effect2_dropShadow_8_29" result="shape"/>
</filter>
<linearGradient id="paint0_linear_8_29" x1="200" y1="7.51453" x2="59.1692" y2="84.3205" gradientUnits="userSpaceOnUse">
<stop stop-color="#237249"/>
<stop offset="1" stop-color="#35C66B"/>
</linearGradient>
</defs>
</svg>
